<?xml version="1.0" encoding="UTF-8"?>
<svg version="1.1" xmlns="http://www.w3.org/2000/svg" width="500" height="500">
<path d="M0 0 C142.56 0 285.12 0 432 0 C432 0.66 432 1.32 432 2 C432.69681381 2.25563721 433.39362762 2.51127441 434.11155701 2.7746582 C439.98715483 5.26721755 444.7819979 8.23063122 449 13 C450.73838163 18.43677292 450.67217075 23.67608446 450.55859375 29.3125 C450.56414929 30.89235101 450.57341663 32.47219287 450.5861969 34.05200195 C450.59932213 37.35158952 450.56995516 40.64725201 450.50952148 43.94628906 C450.43551787 48.15502837 450.46454203 52.3555241 450.52519131 56.56422424 C450.56123456 59.82327969 450.54397243 63.08042462 450.51091194 66.33944702 C450.50113033 67.88941676 450.50711069 69.43957608 450.52981377 70.9894104 C450.65912713 82.95772675 450.65912713 82.95772675 446.69729614 87.83447266 C443.90039154 90.16013606 441.08932079 92.0841614 438 94 C437.13460633 94.85005898 436.26921267 95.70011797 435.37759495 96.57593632 C429.32396044 100.86443951 421.02391306 99.70393928 413.92123413 99.66856384 C412.15078127 99.67790769 410.38033873 99.68941254 408.60991251 99.70289046 C403.74803067 99.73347385 398.88657877 99.73281354 394.02462268 99.72691858 C388.77966354 99.72589833 383.53484238 99.75349444 378.28994751 99.77720642 C368.01476373 99.81873965 357.73972337 99.83248069 347.46446268 99.83526831 C339.11088675 99.83764438 330.75735812 99.84791946 322.40379715 99.86377144 C298.71584658 99.90780694 275.02800928 99.93086826 251.34001748 99.92711907 C250.06298261 99.92691929 248.78594774 99.92671951 247.47021484 99.92651367 C246.19161904 99.92630927 244.91302323 99.92610487 243.5956821 99.92589427 C222.8794968 99.92386251 202.16376616 99.97169505 181.44771235 100.04220551 C160.17265207 100.11404663 138.89781345 100.14855513 117.62262881 100.14423662 C105.67981753 100.14257737 93.7374827 100.15628498 81.79478073 100.21012688 C71.62494745 100.25568227 61.4558065 100.26650494 51.2859153 100.23257976 C46.09908889 100.21626636 40.91359021 100.21591669 35.72689056 100.25934601 C30.97255861 100.29874461 26.22060359 100.2914518 21.4663287 100.24792535 C19.75230996 100.24026509 18.03811262 100.24927825 16.32430463 100.27722573 C3.61423511 100.47066158 -2.66682212 97.74604538 -12 89 C-12.92802701 88.29808295 -13.85605401 87.59616589 -14.81220305 86.87297863 C-17 85 -17 85 -17.70220947 81.85960388 C-17.73634949 80.62259232 -17.7704895 79.38558075 -17.80566406 78.11108398 C-17.83048859 77.42591202 -17.85531311 76.74074005 -17.88088989 76.0348053 C-17.95380327 73.77164372 -17.98797141 71.51023592 -18.015625 69.24609375 C-18.02976189 68.46914721 -18.04389877 67.69220066 -18.05846405 66.89171028 C-18.13337392 62.77464465 -18.17953903 58.65845106 -18.20117188 54.54077148 C-18.22308916 51.14838165 -18.29241046 47.76236079 -18.40625 44.37182617 C-19.38471163 14.71904303 -19.38471163 14.71904303 -13.64257812 8.27001953 C-9.8371968 5.05874651 -5.13048009 2 0 2 C0 1.34 0 0.68 0 0 Z M-3 34 C-3 44.23 -3 54.46 -3 65 C3.93 65 10.86 65 18 65 C18 62.36 18 59.72 18 57 C14.04 57 10.08 57 6 57 C6 49.41 6 41.82 6 34 C3.03 34 0.06 34 -3 34 Z M23 34 C23 44.23 23 54.46 23 65 C30.26 65 37.52 65 45 65 C45 62.36 45 59.72 45 57 C41.04 56.67 37.08 56.34 33 56 C33 55.01 33 54.02 33 53 C35.97 53 38.94 53 42 53 C42 50.69 42 48.38 42 46 C39.03 45.67 36.06 45.34 33 45 C33 44.67 33 44.34 33 44 C38.94 43.505 38.94 43.505 45 43 C45 40.03 45 37.06 45 34 C37.74 34 30.48 34 23 34 Z M49 34 C49 36.97 49 39.94 49 43 C51.64 43 54.28 43 57 43 C57 50.26 57 57.52 57 65 C59.97 65 62.94 65 66 65 C66 57.74 66 50.48 66 43 C68.64 43 71.28 43 74 43 C74 40.03 74 37.06 74 34 C65.75 34 57.5 34 49 34 Z M81 36 C78.33060036 40.00409946 78.17988745 43.2928957 79 48 C82.23596186 51.72625911 86.48658667 53.23003399 91 55 C91 55.66 91 56.32 91 57 C90.31292969 56.88140625 89.62585938 56.7628125 88.91796875 56.640625 C88.01691406 56.51171875 87.11585937 56.3828125 86.1875 56.25 C85.29417969 56.11078125 84.40085937 55.9715625 83.48046875 55.828125 C80.83228781 55.72597472 80.83228781 55.72597472 79.17578125 57.984375 C78.78777344 58.64953125 78.39976563 59.3146875 78 60 C78.50256112 62.01432266 78.50256112 62.01432266 80 64 C85.09953448 66.14180448 89.73316287 66.62793148 95 65 C97.75947637 63.58803863 98.87743667 62.44094783 101 60 C101.60447479 55.69311709 101.36926042 52.65014183 99 49 C96.91282996 47.66461367 96.91282996 47.66461367 94.5 46.75 C93.7059375 46.41484375 92.911875 46.0796875 92.09375 45.734375 C90.05525465 44.8896741 90.05525465 44.8896741 88 45 C88 44.01 88 43.02 88 42 C90.97 42.33 93.94 42.66 97 43 C99.36980013 40.04622502 99.36980013 40.04622502 99 36 C95.88610696 34.18356239 93.59222291 33.7280962 90 33.75 C89.154375 33.74484375 88.30875 33.7396875 87.4375 33.734375 C84.79798931 34.02201399 83.22319268 34.56259094 81 36 Z M124.140625 37.65625 C120.19085097 42.09504367 118.57329622 45.68415012 118.65234375 51.8046875 C119.44084593 56.78376867 122.43436596 60.65802796 126.1875 63.875 C133.10639018 66.64255607 138.93648248 67.88446106 146.0234375 65.0546875 C150.15956647 62.84766216 153.5823412 59.51073255 155 55 C155 52.36 155 49.72 155 47 C149.39 47 143.78 47 138 47 C138 48.98 138 50.96 138 53 C139.98 53 141.96 53 144 53 C143.34 54.32 142.68 55.64 142 57 C134.92035398 57.3539823 134.92035398 57.3539823 131.5625 56.0625 C129.0617268 52.76147937 129.16957904 49.04446014 129 45 C129.66 45 130.32 45 131 45 C131 44.34 131 43.68 131 43 C132.43640171 42.80426392 133.87419504 42.61872184 135.3125 42.4375 C136.11300781 42.33308594 136.91351563 42.22867188 137.73828125 42.12109375 C140 42 140 42 143 43 C145.34287418 40.32752366 145.34287418 40.32752366 146 37 C146.66 36.67 147.32 36.34 148 36 C140.90343601 31.26895734 130.56680642 31.9320884 124.140625 37.65625 Z M161 34 C161 44.23 161 54.46 161 65 C167.93 65 174.86 65 182 65 C182 62.36 182 59.72 182 57 C178.04 57 174.08 57 170 57 C170 55.68 170 54.36 170 53 C172.97 53 175.94 53 179 53 C179 50.69 179 48.38 179 46 C176.03 46 173.06 46 170 46 C170 45.01 170 44.02 170 43 C173.96 43 177.92 43 182 43 C182 40.03 182 37.06 182 34 C175.07 34 168.14 34 161 34 Z M186 34 C186 36.97 186 39.94 186 43 C188.97 43 191.94 43 195 43 C195 50.26 195 57.52 195 65 C197.97 65 200.94 65 204 65 C204 57.74 204 50.48 204 43 C206.31 43 208.62 43 211 43 C211 40.03 211 37.06 211 34 C202.75 34 194.5 34 186 34 Z M232 36 C229.56733537 39.4868193 228.93871584 41.30136063 229.3125 45.5625 C231.56009025 50.14092458 234.48904073 51.83831259 239 54 C239.99 54.33 240.98 54.66 242 55 C242 55.66 242 56.32 242 57 C241.31292969 56.88140625 240.62585938 56.7628125 239.91796875 56.640625 C239.01691406 56.51171875 238.11585938 56.3828125 237.1875 56.25 C236.29417969 56.11078125 235.40085937 55.9715625 234.48046875 55.828125 C231.83228781 55.72597472 231.83228781 55.72597472 230.17578125 57.984375 C229.78777344 58.64953125 229.39976562 59.3146875 229 60 C229.50256112 62.01432266 229.50256112 62.01432266 231 64 C236.40996204 66.27218406 240.40893422 66.26249872 246 65 C248.76101146 63.17890734 250.52100548 61.95798903 252 59 C252.39508467 55.44423793 252.26230049 53.49038786 250.5625 50.3125 C247.08890882 47.17779577 243.46677152 46.17395918 239 45 C239.33 44.01 239.66 43.02 240 42 C241.093125 42.226875 242.18625 42.45375 243.3125 42.6875 C246.85151736 43.35429134 246.85151736 43.35429134 248.9375 41.8125 C250.33714633 39.77502919 250.33714633 39.77502919 250 36 C246.88610696 34.18356239 244.59222291 33.7280962 241 33.75 C240.154375 33.74484375 239.30875 33.7396875 238.4375 33.734375 C235.8065876 34.02107699 234.2229153 34.58060603 232 36 Z M255 34 C255.33 36.97 255.66 39.94 256 43 C258.64 43 261.28 43 264 43 C264 50.26 264 57.52 264 65 C266.97 65 269.94 65 273 65 C273 57.74 273 50.48 273 43 C275.31 43 277.62 43 280 43 C280 40.03 280 37.06 280 34 C271.75 34 263.5 34 255 34 Z M294 34 C288.69244024 44.0723009 284.33475371 54.4821712 280 65 C283.63 65 287.26 65 291 65 C291 64.01 291 63.02 291 62 C292.95901454 62.11382653 294.9172338 62.24141125 296.875 62.375 C297.96554687 62.44460937 299.05609375 62.51421875 300.1796875 62.5859375 C303 63 303 63 305 65 C307.44012949 65.24287489 307.44012949 65.24287489 310.125 65.125 C311.03507812 65.10695313 311.94515625 65.08890625 312.8828125 65.0703125 C313.93082031 65.03550781 313.93082031 65.03550781 315 65 C312.61493239 58.83734084 310.06631355 52.74939818 307.4375 46.6875 C307.14480225 46.00623047 306.85210449 45.32496094 306.55053711 44.62304688 C304.17506456 39.08848656 304.17506456 39.08848656 301 34 C297.37400578 33.58274322 297.37400578 33.58274322 294 34 Z M320 34 C319.90223913 44.38437692 319.8444462 54.66192051 321 65 C323.97 65 326.94 65 330 65 C330 61.37 330 57.74 330 54 C333.67033927 57.27708863 335.69281189 60.71522208 338 65 C341.63 65 345.26 65 349 65 C348.34 64.67 347.68 64.34 347 64 C346.28752268 62.3523962 345.62599617 60.68236471 345 59 C344.608125 58.319375 344.21625 57.63875 343.8125 56.9375 C342.76346155 54.43594677 343.01247376 53.50679738 344 51 C344.53625 50.21625 345.0725 49.4325 345.625 48.625 C347.3776467 45.27903811 346.95631538 43.58618269 346 40 C345.67 39.34 345.34 38.68 345 38 C344.34 38 343.68 38 343 38 C343 37.34 343 36.68 343 36 C338.26101734 33.54846925 333.87937667 33.76845794 328.6875 33.875 C327.43356445 33.88853516 327.43356445 33.88853516 326.15429688 33.90234375 C324.10274031 33.92579011 322.05133223 33.96165734 320 34 Z M352 34 C352 36.97 352 39.94 352 43 C354.31 43 356.62 43 359 43 C359 50.26 359 57.52 359 65 C361.97 65 364.94 65 368 65 C368 57.74 368 50.48 368 43 C370.64 43 373.28 43 376 43 C376 40.03 376 37.06 376 34 C368.08 34 360.16 34 352 34 Z M382 34 C382 44.23 382 54.46 382 65 C388.93 65 395.86 65 403 65 C403 62.36 403 59.72 403 57 C399.04 56.67 395.08 56.34 391 56 C391 55.34 391 54.68 391 54 C393.97 53.67 396.94 53.34 400 53 C400 50.69 400 48.38 400 46 C399.36191406 45.95101562 398.72382813 45.90203125 398.06640625 45.8515625 C397.24011719 45.77679688 396.41382813 45.70203125 395.5625 45.625 C394.73878906 45.55539063 393.91507812 45.48578125 393.06640625 45.4140625 C392.38449219 45.27742188 391.70257813 45.14078125 391 45 C390.67 44.34 390.34 43.68 390 43 C394.29 43 398.58 43 403 43 C403 40.03 403 37.06 403 34 C396.07 34 389.14 34 382 34 Z M410 34 C410 44.23 410 54.46 410 65 C414.2384375 65.12375 414.2384375 65.12375 418.5625 65.25 C419.8764978 65.30462402 419.8764978 65.30462402 421.21704102 65.36035156 C426.99543045 65.44126859 430.30085251 64.41047822 435 61 C437.8653495 57.51705637 438.90262002 53.8068627 439.4375 49.375 C438.75242629 44.09014564 436.99899694 40.659266 433 37.1875 C429.50931448 34.64220847 427.19817785 33.87069039 422.98828125 33.90234375 C422.30548096 33.90484131 421.62268066 33.90733887 420.91918945 33.90991211 C420.05898193 33.91901611 419.19877441 33.92812012 418.3125 33.9375 C415.569375 33.958125 412.82625 33.97875 410 34 Z " fill="#FB0202" transform="translate(33,162)"/>
<path d="M0 0 C-3.87939731 4.36455103 -7.69054809 6.32358321 -13.5626169 6.68993507 C-17.46353767 6.79915245 -21.35767207 6.78461459 -25.25958252 6.7484436 C-27.03731002 6.75392713 -28.81503104 6.7620333 -30.59273601 6.77253091 C-35.4698708 6.79368848 -40.34627164 6.77745838 -45.22337437 6.75502992 C-50.48583201 6.73733931 -55.74819396 6.75423457 -61.01065063 6.76675415 C-71.31550838 6.78572894 -81.62008601 6.77253258 -91.92492297 6.74822827 C-103.92005213 6.7209904 -115.91511451 6.72426366 -127.91026673 6.72849493 C-149.30677184 6.73487424 -170.70314376 6.71153988 -192.09960938 6.67236328 C-212.87373916 6.63433605 -233.6477129 6.62019319 -254.421875 6.63134766 C-277.03622077 6.64345424 -299.65049792 6.64312711 -322.26483798 6.62037599 C-324.67447074 6.61796136 -327.0841035 6.61554938 -329.49373627 6.61314011 C-330.67938093 6.61193303 -331.8650256 6.61072595 -333.08659889 6.6094823 C-341.45352548 6.60171435 -349.82042658 6.60251487 -358.18735504 6.6063118 C-368.37666529 6.61054921 -378.56583867 6.60015654 -388.75511029 6.57108469 C-393.95660675 6.55656562 -399.15790354 6.54846905 -404.35941696 6.55757141 C-409.1162862 6.56569345 -413.87274226 6.55548244 -418.62954864 6.53031926 C-420.35479702 6.52443859 -422.08008407 6.52536534 -423.8053228 6.53360541 C-426.14227635 6.543758 -428.47783085 6.52953036 -430.81468582 6.50895119 C-432.1150683 6.50721763 -433.41545077 6.50548408 -434.75523877 6.50369799 C-438.51000078 5.92083042 -439.68537199 4.93737605 -442 2 C-441.01 2.33 -440.02 2.66 -439 3 C-436.6347552 3.09366804 -434.26686847 3.12373494 -431.89976978 3.12304783 C-430.8030439 3.1247786 -430.8030439 3.1247786 -429.68416193 3.12654433 C-427.21502203 3.12920764 -424.74594632 3.12469115 -422.27680969 3.12025452 C-420.49643141 3.12069028 -418.7160532 3.12156527 -416.93567532 3.12284368 C-412.02836692 3.1250877 -407.1210802 3.1210686 -402.21377456 3.11606562 C-396.92747934 3.11175999 -391.6411854 3.11320763 -386.35488892 3.1139679 C-377.19104534 3.11449306 -368.02720887 3.11134705 -358.86336708 3.10573006 C-345.61387693 3.09761403 -332.36439023 3.09499973 -319.11489787 3.09374207 C-297.62013504 3.09155171 -276.125376 3.08489206 -254.63061523 3.07543945 C-233.74650084 3.06626492 -212.86238748 3.05918429 -191.97827148 3.05493164 C-190.69166456 3.05466892 -189.40505764 3.05440619 -188.07946263 3.05413551 C-181.62513982 3.0528305 -175.17081702 3.05156679 -168.7164942 3.05032361 C-115.14432685 3.0399515 -61.57216361 3.02233362 -8 3 C-7.67 2.01 -7.34 1.02 -7 0 C-2.25 -1.125 -2.25 -1.125 0 0 Z " fill="#E85658" transform="translate(472,255)"/>
<path d="M0 0 C142.56 0 285.12 0 432 0 C431.67 0.66 431.34 1.32 431 2 C290.09 1.67 149.18 1.34 4 1 C3.67 1.99 3.34 2.98 3 4 C1.68 3.67 0.36 3.34 -1 3 C-1.33 5.31 -1.66 7.62 -2 10 C-4.64 9.67 -7.28 9.34 -10 9 C-6.87378374 5.60582235 -4.43458973 3.3937282 0 2 C0 1.34 0 0.68 0 0 Z " fill="#DC2E30" transform="translate(33,162)"/>
<path d="M0 0 C1.33583899 4.84241633 2.25328119 8.93437617 2 14 C1.34 14 0.68 14 0 14 C-0.33 10.7 -0.66 7.4 -1 4 C-1.66 4 -2.32 4 -3 4 C-3 3.34 -3 2.68 -3 2 C-7.73879768 0.85149303 -12.46291362 0.67098443 -17.3125 0.4375 C-18.14845703 0.39431641 -18.98441406 0.35113281 -19.84570312 0.30664062 C-21.89696935 0.20114693 -23.9484648 0.10012685 -26 0 C-25.75443359 1.34771484 -25.75443359 1.34771484 -25.50390625 2.72265625 C-24.71151239 8.26941327 -24.8943717 13.84740921 -24.9375 19.4375 C-24.94201172 20.55060547 -24.94652344 21.66371094 -24.95117188 22.81054688 C-24.96288807 25.54042101 -24.97929301 28.27018174 -25 31 C-22.03 31 -19.06 31 -16 31 C-16 27.37 -16 23.74 -16 20 C-15.01 20.33 -14.02 20.66 -13 21 C-11.3125 24.5625 -11.3125 24.5625 -10 28 C-10.99 28.495 -10.99 28.495 -12 29 C-12 27.68 -12 26.36 -12 25 C-12.66 25 -13.32 25 -14 25 C-14 27.64 -14 30.28 -14 33 C-23.24 33 -32.48 33 -42 33 C-42.33 32.34 -42.66 31.68 -43 31 C-46.96 31 -50.92 31 -55 31 C-55 30.01 -55 29.02 -55 28 C-53.04196493 27.94610913 -51.08351091 27.90725783 -49.125 27.875 C-48.03445313 27.85179687 -46.94390625 27.82859375 -45.8203125 27.8046875 C-43 28 -43 28 -41 30 C-38.78927023 30.24253813 -38.78927023 30.24253813 -36.375 30.125 C-35.55773437 30.10695312 -34.74046875 30.08890625 -33.8984375 30.0703125 C-33.27195312 30.04710937 -32.64546875 30.02390625 -32 30 C-32.26554687 29.41992188 -32.53109375 28.83984375 -32.8046875 28.2421875 C-34.77561334 23.88313255 -36.59049252 19.58089932 -38 15 C-37.34 14.67 -36.68 14.34 -36 14 C-36 14.99 -36 15.98 -36 17 C-35.34 17 -34.68 17 -34 17 C-34 17.99 -34 18.98 -34 20 C-33.34 20 -32.68 20 -32 20 C-32 21.32 -32 22.64 -32 24 C-31.34 24 -30.68 24 -30 24 C-29.67 24.66 -29.34 25.32 -29 26 C-28.67 17.09 -28.34 8.18 -28 -1 C-17.96187205 -4.34604265 -9.94470896 -3.23154953 0 0 Z " fill="#EB1121" transform="translate(379,196)"/>
<path d="M0 0 C11.74576744 -0.07627122 23.30137822 -0.10104676 35 1 C35 1.33 35 1.66 35 2 C32.36 2 29.72 2 27 2 C27 4.97 27 7.94 27 11 C29.64 11 32.28 11 35 11 C35 18.26 35 25.52 35 33 C37.97 33 40.94 33 44 33 C44 25.74 44 18.48 44 11 C44.33 11 44.66 11 45 11 C45 18.59 45 26.18 45 34 C41.04 34 37.08 34 33 34 C33 27.07 33 20.14 33 13 C29.7 13 26.4 13 23 13 C23 16.96 23 20.92 23 25 C19.04 25 15.08 25 11 25 C10.67 24.34 10.34 23.68 10 23 C10.33 22.34 10.66 21.68 11 21 C13.97 21 16.94 21 20 21 C20 18.69 20 16.38 20 14 C17.03 14 14.06 14 11 14 C11 13.01 11 12.02 11 11 C14.96 11 18.92 11 23 11 C23 8.03 23 5.06 23 2 C15.74 2 8.48 2 1 2 C1 12.23 1 22.46 1 33 C8.26 33 15.52 33 23 33 C23 33.33 23 33.66 23 34 C15.41 34 7.82 34 0 34 C0 22.78 0 11.56 0 0 Z " fill="#E95050" transform="translate(55,194)"/>
<path d="M0 0 C0.74886475 0.00523682 1.49772949 0.01047363 2.26928711 0.01586914 C3.07817383 0.0190918 3.88706055 0.02231445 4.72045898 0.02563477 C5.5705957 0.03401367 6.42073242 0.04239258 7.29663086 0.05102539 C8.15063477 0.05553711 9.00463867 0.06004883 9.88452148 0.06469727 C12.00108749 0.07652166 14.11761771 0.0944577 16.23413086 0.11352539 C16.23413086 0.44352539 16.23413086 0.77352539 16.23413086 1.11352539 C17.16225586 1.38165039 18.09038086 1.64977539 19.04663086 1.92602539 C21.99653451 3.02500911 23.29028272 3.737711 25.23413086 6.11352539 C24.90413086 7.10352539 24.57413086 8.09352539 24.23413086 9.11352539 C23.47100586 8.47415039 22.70788086 7.83477539 21.92163086 7.17602539 C18.66073333 4.67347612 16.21954298 4.00749445 12.22241211 3.79711914 C11.19821167 3.73995728 11.19821167 3.73995728 10.15332031 3.68164062 C9.29311279 3.6385376 8.43290527 3.59543457 7.54663086 3.55102539 C4.80350586 3.40665039 2.06038086 3.26227539 -0.76586914 3.11352539 C-0.76586914 13.34352539 -0.76586914 23.57352539 -0.76586914 34.11352539 C3.85413086 34.11352539 8.47413086 34.11352539 13.23413086 34.11352539 C13.23413086 34.44352539 13.23413086 34.77352539 13.23413086 35.11352539 C7.95413086 35.11352539 2.67413086 35.11352539 -2.76586914 35.11352539 C-2.82645508 33.69297852 -2.88704102 32.27243164 -2.94946289 30.80883789 C-3.03386205 28.9520563 -3.11851037 27.09528603 -3.20336914 25.23852539 C-3.24268555 24.30137695 -3.28200195 23.36422852 -3.32250977 22.39868164 C-3.3644043 21.5027832 -3.40629883 20.60688477 -3.44946289 19.68383789 C-3.48612061 18.8564209 -3.52277832 18.02900391 -3.56054688 17.17651367 C-3.64825241 15.0517311 -3.64825241 15.0517311 -4.76586914 13.11352539 C-6.08586914 13.44352539 -7.40586914 13.77352539 -8.76586914 14.11352539 C-8.74524414 15.41290039 -8.72461914 16.71227539 -8.70336914 18.05102539 C-8.6818746 19.40518172 -8.69438715 20.76108622 -8.76586914 22.11352539 C-9.76586914 23.11352539 -9.76586914 23.11352539 -11.83227539 23.21118164 C-12.65598633 23.19958008 -13.47969727 23.18797852 -14.32836914 23.17602539 C-15.1546582 23.16700195 -15.98094727 23.15797852 -16.83227539 23.14868164 C-17.7894043 23.1312793 -17.7894043 23.1312793 -18.76586914 23.11352539 C-18.43586914 24.10352539 -18.10586914 25.09352539 -17.76586914 26.11352539 C-18.75586914 25.78352539 -19.74586914 25.45352539 -20.76586914 25.11352539 C-20.43586914 24.12352539 -20.10586914 23.13352539 -19.76586914 22.11352539 C-16.79586914 22.11352539 -13.82586914 22.11352539 -10.76586914 22.11352539 C-10.76586914 19.80352539 -10.76586914 17.49352539 -10.76586914 15.11352539 C-13.73586914 15.11352539 -16.70586914 15.11352539 -19.76586914 15.11352539 C-20.09586914 14.12352539 -20.42586914 13.13352539 -20.76586914 12.11352539 C-16.47586914 12.11352539 -12.18586914 12.11352539 -7.76586914 12.11352539 C-7.76586914 9.14352539 -7.76586914 6.17352539 -7.76586914 3.11352539 C-14.69586914 3.11352539 -21.62586914 3.11352539 -28.76586914 3.11352539 C-28.76586914 13.34352539 -28.76586914 23.57352539 -28.76586914 34.11352539 C-21.83586914 34.11352539 -14.90586914 34.11352539 -7.76586914 34.11352539 C-7.76586914 34.44352539 -7.76586914 34.77352539 -7.76586914 35.11352539 C-15.02586914 35.11352539 -22.28586914 35.11352539 -29.76586914 35.11352539 C-29.76586914 24.22352539 -29.76586914 13.33352539 -29.76586914 2.11352539 C-24.13524414 2.05165039 -24.13524414 2.05165039 -18.39086914 1.98852539 C-17.20831543 1.97031738 -16.02576172 1.95210937 -14.80737305 1.93334961 C-13.87844238 1.92835449 -12.94951172 1.92335937 -11.99243164 1.91821289 C-10.56278076 1.90250244 -10.56278076 1.90250244 -9.10424805 1.88647461 C-6.76586914 2.11352539 -6.76586914 2.11352539 -4.76586914 4.11352539 C-4.36822651 6.10173852 -4.02811565 8.10296878 -3.76586914 10.11352539 C-3.67499023 9.15639648 -3.67499023 9.15639648 -3.58227539 8.17993164 C-3.49848633 7.35364258 -3.41469727 6.52735352 -3.32836914 5.67602539 C-3.2471582 4.85231445 -3.16594727 4.02860352 -3.08227539 3.17993164 C-2.69136029 0.62691823 -2.59406513 0.16676901 0 0 Z " fill="#F07777" transform="translate(443.765869140625,192.886474609375)"/>
<path d="M0 0 C2.97 0 5.94 0 9 0 C9 0.99 9 1.98 9 3 C6.36 3 3.72 3 1 3 C1 5.97 1 8.94 1 12 C3.97 12 6.94 12 10 12 C10 19.26 10 26.52 10 34 C12.97 34 15.94 34 19 34 C19 26.74 19 19.48 19 12 C21.31 12 23.62 12 26 12 C26 9.03 26 6.06 26 3 C20.72 3 15.44 3 10 3 C10 2.67 10 2.34 10 2 C15.61 2 21.22 2 27 2 C27 5.63 27 9.26 27 13 C24.69 13 22.38 13 20 13 C20 20.26 20 27.52 20 35 C16.04 35 12.08 35 8 35 C8 27.74 8 20.48 8 13 C1.96347336 12.86779854 1.96347336 12.86779854 -3 15 C-3.07226502 16.85287502 -3.0838122 18.70833878 -3.0625 20.5625 C-3.041875 22.356875 -3.02125 24.15125 -3 26 C-6.96 26 -10.92 26 -15 26 C-15 24.68 -15 23.36 -15 22 C-12.03 22 -9.06 22 -6 22 C-6 19.69 -6 17.38 -6 15 C-8.97 15 -11.94 15 -15 15 C-15 14.01 -15 13.02 -15 12 C-11.04 12 -7.08 12 -3 12 C-3 9.03 -3 6.06 -3 3 C-8.61 3 -14.22 3 -20 3 C-20 2.67 -20 2.34 -20 2 C-13.4 2 -6.8 2 0 2 C0 1.34 0 0.68 0 0 Z " fill="#DF5655" transform="translate(218,193)"/>
<path d="M0 0 C4.29 0 8.58 0 13 0 C13 0.66 13 1.32 13 2 C15.97 2.495 15.97 2.495 19 3 C19.6875 4.6875 19.6875 4.6875 20 7 C17.73846154 11.63076923 17.73846154 11.63076923 15 13 C16.58272601 14.58272601 18.38034003 14.34735747 20.5625 14.5625 C21.38878906 14.64628906 22.21507812 14.73007813 23.06640625 14.81640625 C23.70449219 14.87699219 24.34257812 14.93757812 25 15 C25 15.33 25 15.66 25 16 C19.39 16 13.78 16 8 16 C8 17.98 8 19.96 8 22 C9.98 22 11.96 22 14 22 C13.125 25.875 13.125 25.875 12 27 C7.57666112 27.36861157 5.01526373 27.48648054 1 25.5625 C-1.90381914 21.84198173 -1.4379812 18.55500448 -1 14 C-0.34 14 0.32 14 1 14 C1 13.34 1 12.68 1 12 C2.5625 10.9375 2.5625 10.9375 5 10 C6.7325 10.3403125 6.7325 10.3403125 8.5 10.6875 C10.2325 10.8421875 10.2325 10.8421875 12 11 C14.49210521 8.69931981 14.49210521 8.69931981 16 6 C15.67 5.34 15.34 4.68 15 4 C8.43753343 2.38542489 2.39753713 3.13018842 -4 5 C-3.67 4.01 -3.34 3.02 -3 2 C-2.01 2 -1.02 2 0 2 C0 1.34 0 0.68 0 0 Z " fill="#EC1C1C" transform="translate(163,193)"/>
<path d="M0 0 C0.66 0.33 1.32 0.66 2 1 C1.67 11.23 1.34 21.46 1 32 C7.93 32 14.86 32 22 32 C22 29.36 22 26.72 22 24 C22.33 24 22.66 24 23 24 C23 26.97 23 29.94 23 33 C14.75 33 6.5 33 -2 33 C-2.33 30.03 -2.66 27.06 -3 24 C-3.99 24.99 -4.98 25.98 -6 27 C-6.66 26.67 -7.32 26.34 -8 26 C-7.690625 25.484375 -7.38125 24.96875 -7.0625 24.4375 C-5.70940713 21.33334577 -5.38640576 18.34884993 -5 15 C-4.34 15.33 -3.68 15.66 -3 16 C-2.95101562 14.92878906 -2.90203125 13.85757813 -2.8515625 12.75390625 C-2.77654706 11.35674361 -2.7009987 9.9596095 -2.625 8.5625 C-2.57859375 7.50192383 -2.57859375 7.50192383 -2.53125 6.41992188 C-2.42719371 4.60760812 -2.22080108 2.80182012 -2 1 C-1.34 0.67 -0.68 0.34 0 0 Z " fill="#ED5050" transform="translate(193,195)"/>
<path d="M0 0 C0.74886475 0.00523682 1.49772949 0.01047363 2.26928711 0.01586914 C3.07817383 0.0190918 3.88706055 0.02231445 4.72045898 0.02563477 C5.5705957 0.03401367 6.42073242 0.04239258 7.29663086 0.05102539 C8.15063477 0.05553711 9.00463867 0.06004883 9.88452148 0.06469727 C12.00108749 0.07652166 14.11761771 0.0944577 16.23413086 0.11352539 C16.23413086 0.44352539 16.23413086 0.77352539 16.23413086 1.11352539 C17.16225586 1.38165039 18.09038086 1.64977539 19.04663086 1.92602539 C21.99653451 3.02500911 23.29028272 3.737711 25.23413086 6.11352539 C24.90413086 7.10352539 24.57413086 8.09352539 24.23413086 9.11352539 C23.08944336 8.15446289 23.08944336 8.15446289 21.92163086 7.17602539 C18.66073333 4.67347612 16.21954298 4.00749445 12.22241211 3.79711914 C11.19821167 3.73995728 11.19821167 3.73995728 10.15332031 3.68164062 C9.29311279 3.6385376 8.43290527 3.59543457 7.54663086 3.55102539 C4.80350586 3.40665039 2.06038086 3.26227539 -0.76586914 3.11352539 C-0.76586914 13.34352539 -0.76586914 23.57352539 -0.76586914 34.11352539 C3.85413086 34.11352539 8.47413086 34.11352539 13.23413086 34.11352539 C13.23413086 34.44352539 13.23413086 34.77352539 13.23413086 35.11352539 C7.95413086 35.11352539 2.67413086 35.11352539 -2.76586914 35.11352539 C-2.78877934 30.28965472 -2.808706 25.4659715 -2.82080078 20.64208984 C-2.82584088 18.99983075 -2.83267292 17.35757616 -2.84130859 15.71533203 C-2.8533884 13.3597706 -2.85910053 11.0042683 -2.86352539 8.64868164 C-2.86868668 7.91013443 -2.87384796 7.17158722 -2.87916565 6.41065979 C-2.87936164 4.64454451 -2.82781633 2.87855393 -2.76586914 1.11352539 C-1.76586914 0.11352539 -1.76586914 0.11352539 0 0 Z " fill="#EA8383" transform="translate(443.765869140625,192.886474609375)"/>
<path d="M0 0 C1.23556641 0.01740234 1.23556641 0.01740234 2.49609375 0.03515625 C3.32238281 0.04417969 4.14867187 0.05320313 5 0.0625 C5.63808594 0.07410156 6.27617187 0.08570313 6.93359375 0.09765625 C6.93359375 0.75765625 6.93359375 1.41765625 6.93359375 2.09765625 C3.96359375 2.09765625 0.99359375 2.09765625 -2.06640625 2.09765625 C-2.06640625 5.06765625 -2.06640625 8.03765625 -2.06640625 11.09765625 C0.24359375 11.09765625 2.55359375 11.09765625 4.93359375 11.09765625 C4.93359375 18.35765625 4.93359375 25.61765625 4.93359375 33.09765625 C7.90359375 33.09765625 10.87359375 33.09765625 13.93359375 33.09765625 C13.93359375 25.83765625 13.93359375 18.57765625 13.93359375 11.09765625 C16.57359375 11.09765625 19.21359375 11.09765625 21.93359375 11.09765625 C21.93359375 8.12765625 21.93359375 5.15765625 21.93359375 2.09765625 C18.63359375 2.09765625 15.33359375 2.09765625 11.93359375 2.09765625 C11.93359375 1.76765625 11.93359375 1.43765625 11.93359375 1.09765625 C13.74601427 1.07078346 15.55854608 1.0513191 17.37109375 1.03515625 C18.38042969 1.02355469 19.38976562 1.01195312 20.4296875 1 C22.93359375 1.09765625 22.93359375 1.09765625 23.93359375 2.09765625 C24.00564886 3.78374591 24.01745443 5.47266284 23.99609375 7.16015625 C23.98707031 8.07925781 23.97804688 8.99835938 23.96875 9.9453125 C23.95714844 10.65558594 23.94554687 11.36585938 23.93359375 12.09765625 C21.29359375 12.42765625 18.65359375 12.75765625 15.93359375 13.09765625 C15.93359375 20.02765625 15.93359375 26.95765625 15.93359375 34.09765625 C11.97359375 34.09765625 8.01359375 34.09765625 3.93359375 34.09765625 C3.93359375 26.83765625 3.93359375 19.57765625 3.93359375 12.09765625 C1.62359375 12.09765625 -0.68640625 12.09765625 -3.06640625 12.09765625 C-3.09327904 10.28523573 -3.1127434 8.47270392 -3.12890625 6.66015625 C-3.14050781 5.65082031 -3.15210938 4.64148438 -3.1640625 3.6015625 C-3.02917925 0.14315592 -3.02917925 0.14315592 0 0 Z " fill="#E66464" transform="translate(387.06640625,193.90234375)"/>
<path d="M0 0 C2.31 0.33 4.62 0.66 7 1 C6.443125 2.5778125 6.443125 2.5778125 5.875 4.1875 C4.91690629 8.36205118 4.93823315 9.38045375 7 13 C9.5931354 14.88559789 9.5931354 14.88559789 12.625 16.3125 C13.62789063 16.82425781 14.63078125 17.33601563 15.6640625 17.86328125 C16.43492187 18.23839844 17.20578125 18.61351562 18 19 C17.67 19.99 17.34 20.98 17 22 C13.7 21.67 10.4 21.34 7 21 C6.01 23.475 6.01 23.475 5 26 C7.91765 27.9451 9.62537285 28.45276317 13 29 C13 29.33 13 29.66 13 30 C12.31292969 29.97679687 11.62585938 29.95359375 10.91796875 29.9296875 C10.01691406 29.91164062 9.11585938 29.89359375 8.1875 29.875 C7.29417969 29.85179687 6.40085937 29.82859375 5.48046875 29.8046875 C2.74597286 29.81714173 2.74597286 29.81714173 0 32 C0.33 29.36 0.66 26.72 1 24 C1.66 24 2.32 24 3 24 C3 23.01 3 22.02 3 21 C3.66 21 4.32 21 5 21 C5 20.34 5 19.68 5 19 C5.66 18.34 6.32 17.68 7 17 C6.34 16.67 5.68 16.34 5 16 C5 15.34 5 14.68 5 14 C4.34 14 3.68 14 3 14 C2.80508548 12.54263913 2.61930642 11.08405407 2.4375 9.625 C2.33308594 8.81289062 2.22867187 8.00078125 2.12109375 7.1640625 C2 5 2 5 3 3 C2.01 2.67 1.02 2.34 0 2 C0 1.34 0 0.68 0 0 Z " fill="#E65253" transform="translate(258,198)"/>
<path d="M0 0 C7.40256709 -0.48541424 7.40256709 -0.48541424 10 1.625 C11.2766188 4.65696965 11.41616519 6.74003936 11 10 C9.45493534 12.03667615 8.27853844 12.86073078 6 14 C4.02 14 2.04 14 0 14 C0 9.38 0 4.76 0 0 Z " fill="#F01413" transform="translate(451,205)"/>
<path d="M0 0 C0.99 0.33 1.98 0.66 3 1 C4.6875 4.5625 4.6875 4.5625 6 8 C5.34 8.33 4.68 8.66 4 9 C4 7.68 4 6.36 4 5 C3.34 5 2.68 5 2 5 C2 7.64 2 10.28 2 13 C-7.24 13 -16.48 13 -26 13 C-26.33 12.34 -26.66 11.68 -27 11 C-30.96 11 -34.92 11 -39 11 C-39 10.01 -39 9.02 -39 8 C-37.04196493 7.94610913 -35.08351091 7.90725783 -33.125 7.875 C-31.48917969 7.84019531 -31.48917969 7.84019531 -29.8203125 7.8046875 C-27 8 -27 8 -25 10 C-22.78927023 10.24253813 -22.78927023 10.24253813 -20.375 10.125 C-19.55773437 10.10695312 -18.74046875 10.08890625 -17.8984375 10.0703125 C-17.27195312 10.04710937 -16.64546875 10.02390625 -16 10 C-15.67 9.34 -15.34 8.68 -15 8 C-14.01 8.66 -13.02 9.32 -12 10 C-12 10.66 -12 11.32 -12 12 C-11.34 11.67 -10.68 11.34 -10 11 C-8.29297265 10.93003986 -6.58331997 10.91559846 -4.875 10.9375 C-3.26625 10.958125 -1.6575 10.97875 0 11 C0 7.37 0 3.74 0 0 Z " fill="#E65E5E" transform="translate(363,216)"/>
<path d="M0 0 C2.10633718 1.70828921 2.93801608 2.52148416 3.29296875 5.26171875 C3.25816406 6.06222656 3.22335937 6.86273438 3.1875 7.6875 C3.16042969 8.49574219 3.13335937 9.30398437 3.10546875 10.13671875 C3.05326172 11.05904297 3.05326172 11.05904297 3 12 C2.01 12.33 1.02 12.66 0 13 C0.185625 13.9075 0.37125 14.815 0.5625 15.75 C0.95734621 18.68314324 0.94691572 20.2644657 0 23 C-0.66 23 -1.32 23 -2 23 C-2 20.03 -2 17.06 -2 14 C-5.3 14 -8.6 14 -12 14 C-12.33 13.01 -12.66 12.02 -13 11 C-8.545 10.505 -8.545 10.505 -4 10 C-3.67 7.36 -3.34 4.72 -3 2 C-2.01 2 -1.02 2 0 2 C0 1.34 0 0.68 0 0 Z " fill="#F30505" transform="translate(438,205)"/>
<path d="M0 0 C1.39783214 0.91361578 2.79316393 1.83105746 4.1875 2.75 C5.35345703 3.51570312 5.35345703 3.51570312 6.54296875 4.296875 C7.35378906 4.85890625 8.16460937 5.4209375 9 6 C9.86396896 6.54944275 10.72793793 7.0988855 11.61808777 7.66497803 C14 10 14 10 14.60127258 13.2144165 C14.584618 15.11970123 14.584618 15.11970123 14.56762695 17.06347656 C14.56872215 18.11773834 14.56872215 18.11773834 14.56983948 19.19329834 C14.5663638 21.50986688 14.52750908 23.82440908 14.48828125 26.140625 C14.47895292 27.74915468 14.4718369 29.35769858 14.46684265 30.96624756 C14.44777407 35.19494008 14.39867551 39.42277056 14.34332275 43.65112305 C14.29212664 47.96781757 14.2693279 52.28465173 14.24414062 56.6015625 C14.1905557 65.06810344 14.10524577 73.53394441 14 82 C13.67 82 13.34 82 13 82 C13 58.57 13 35.14 13 11 C11.35 10.67 9.7 10.34 8 10 C8 9.01 8 8.02 8 7 C6.824375 7.0928125 6.824375 7.0928125 5.625 7.1875 C4.75875 7.125625 3.8925 7.06375 3 7 C1.25372522 4.38058783 0.61277612 2.96175123 0 0 Z " fill="#DD443C" transform="translate(468,165)"/>
<path d="M0 0 C3.96 0 7.92 0 12 0 C12 4.62 12 9.24 12 14 C8.04 14 4.08 14 0 14 C-0.33 13.34 -0.66 12.68 -1 12 C-0.67 11.34 -0.34 10.68 0 10 C2.97 10 5.94 10 9 10 C9 7.69 9 5.38 9 3 C6.03 3 3.06 3 0 3 C0 2.01 0 1.02 0 0 Z " fill="#E04042" transform="translate(66,205)"/>
<path d="M0 0 C0.66 0.33 1.32 0.66 2 1 C0.6875 3.5 0.6875 3.5 -1 6 C-1.99 6 -2.98 6 -4 6 C-3.89228187 14.50178591 -3.77960542 23.00348569 -3.66066074 31.50512123 C-3.60557995 35.45309391 -3.55218443 39.40107417 -3.50268555 43.34912109 C-3.45482211 47.161718 -3.40247275 50.97422971 -3.34705925 54.78672409 C-3.32673486 56.23869062 -3.30800604 57.69068043 -3.29092598 59.14268875 C-3.26666087 61.1819623 -3.23663882 63.22107809 -3.20532227 65.26025391 C-3.18977798 66.41941315 -3.1742337 67.57857239 -3.15821838 68.77285767 C-3.00386213 71.92122503 -2.5846478 74.90523232 -2 78 C-2.99 77.34 -3.98 76.68 -5 76 C-5.39440918 73.05300903 -5.39440918 73.05300903 -5.41992188 69.22705078 C-5.42839142 68.53092682 -5.43686096 67.83480286 -5.44558716 67.11758423 C-5.46903898 64.80997583 -5.4699773 62.50303119 -5.46875 60.1953125 C-5.47584775 58.59349295 -5.48354617 56.99167596 -5.49182129 55.38986206 C-5.50528562 52.02887919 -5.50682668 48.66813125 -5.50097656 45.30712891 C-5.49508478 41.00023817 -5.52563985 36.69447642 -5.56609344 32.38780403 C-5.59194977 29.07805307 -5.59484968 25.76857446 -5.59120178 22.45873642 C-5.59289564 20.87109418 -5.60256384 19.28343971 -5.62034607 17.69589615 C-5.64249261 15.47374407 -5.63285902 13.25388274 -5.61523438 11.03173828 C-5.61728882 9.76758087 -5.61934326 8.50342346 -5.62145996 7.20095825 C-5 4 -5 4 -2.46154785 1.56051636 C-1.64923706 1.04554596 -0.83692627 0.53057556 0 0 Z " fill="#E34747" transform="translate(21,171)"/>
<path d="M0 0 C1.33583899 4.84241633 2.25328119 8.93437617 2 14 C1.34 14 0.68 14 0 14 C-0.495 9.05 -0.495 9.05 -1 4 C-1.66 4 -2.32 4 -3 4 C-3 3.34 -3 2.68 -3 2 C-7.73879768 0.85149303 -12.46291362 0.67098443 -17.3125 0.4375 C-18.14845703 0.39431641 -18.98441406 0.35113281 -19.84570312 0.30664062 C-21.89696935 0.20114693 -23.9484648 0.10012685 -26 0 C-26 -0.66 -26 -1.32 -26 -2 C-17.12037617 -4.55469456 -8.58927805 -2.79110002 0 0 Z " fill="#E83B3D" transform="translate(379,196)"/>
<path d="M0 0 C0.33 0 0.66 0 1 0 C1 23.76 1 47.52 1 72 C-0.98 72.99 -0.98 72.99 -3 74 C-3 73.01 -3 72.02 -3 71 C-2.01 71 -1.02 71 0 71 C0 47.57 0 24.14 0 0 Z " fill="#E60A08" transform="translate(480,176)"/>
<path d="M0 0 C4.29 0 8.58 0 13 0 C13 0.66 13 1.32 13 2 C15.97 2.495 15.97 2.495 19 3 C19.6875 4.6875 19.6875 4.6875 20 7 C18.8125 9.75 18.8125 9.75 17 12 C15.68 12 14.36 12 13 12 C13.309375 11.401875 13.61875 10.80375 13.9375 10.1875 C15.10209704 7.91043228 15.10209704 7.91043228 16 5 C8.98050597 2.46103408 3.13829527 3.1147166 -4 5 C-3.67 4.01 -3.34 3.02 -3 2 C-2.01 2 -1.02 2 0 2 C0 1.34 0 0.68 0 0 Z " fill="#EC4548" transform="translate(163,193)"/>
<path d="M0 0 C12.87 0 25.74 0 39 0 C39 0.33 39 0.66 39 1 C27.45 1 15.9 1 4 1 C3.67 1.99 3.34 2.98 3 4 C1.68 3.67 0.36 3.34 -1 3 C-1.33 5.31 -1.66 7.62 -2 10 C-4.64 9.67 -7.28 9.34 -10 9 C-6.87378374 5.60582235 -4.43458973 3.3937282 0 2 C0 1.34 0 0.68 0 0 Z " fill="#DF2E2E" transform="translate(33,162)"/>
<path d="M0 0 C0.66 0.33 1.32 0.66 2 1 C0.1668733 6.99932374 -2.07321751 12.44920563 -5 18 C-1.7 18.33 1.6 18.66 5 19 C4.67 19.66 4.34 20.32 4 21 C0.04 21 -3.92 21 -8 21 C-7.34 17.7 -6.68 14.4 -6 11 C-5.34 11 -4.68 11 -4 11 C-3.34 8.03 -2.68 5.06 -2 2 C-1.34 2 -0.68 2 0 2 C0 1.34 0 0.68 0 0 Z " fill="#E7474A" transform="translate(319,208)"/>
<path d="M0 0 C0.66 0 1.32 0 2 0 C2 6.93 2 13.86 2 21 C5.63 21 9.26 21 13 21 C13 21.66 13 22.32 13 23 C8.71 23 4.42 23 0 23 C0 15.41 0 7.82 0 0 Z " fill="#D42A2B" transform="translate(39,196)"/>
<path d="M0 0 C0.66 0 1.32 0 2 0 C2 1.98 2 3.96 2 6 C3.98 6 5.96 6 8 6 C7.125 9.875 7.125 9.875 6 11 C-1.25650558 11.59479554 -1.25650558 11.59479554 -4.5 9 C-4.995 8.34 -5.49 7.68 -6 7 C-3.03 7.495 -3.03 7.495 0 8 C0 5.36 0 2.72 0 0 Z " fill="#E74344" transform="translate(169,209)"/>
<path d="M0 0 C0.66 0 1.32 0 2 0 C2.25 2.75 2.25 2.75 2 6 C0 8.375 0 8.375 -2 10 C-1.34 10.33 -0.68 10.66 0 11 C0 11.66 0 12.32 0 13 C-1.4589426 12.52269162 -2.91713496 12.04308958 -4.375 11.5625 C-5.18710938 11.29566406 -5.99921875 11.02882812 -6.8359375 10.75390625 C-9 10 -9 10 -11 9 C-11 8.01 -11 7.02 -11 6 C-7.23375329 4.74458443 -5.62811066 5.62938042 -2 7 C-1.34 4.69 -0.68 2.38 0 0 Z " fill="#E33C3D" transform="translate(132,198)"/>
<path d="M0 0 C-3.3975909 3.51181605 -5.57913679 5.31515006 -10.53662109 5.56762695 C-12.28242674 5.56684245 -14.02836887 5.53901056 -15.7734375 5.48828125 C-17.1590538 5.47766914 -17.1590538 5.47766914 -18.57266235 5.46684265 C-21.50761732 5.43897277 -24.44062693 5.37624888 -27.375 5.3125 C-29.37106609 5.28740752 -31.36716225 5.26459602 -33.36328125 5.24414062 C-38.24293096 5.18917039 -43.12113627 5.10294966 -48 5 C-48 4.67 -48 4.34 -48 4 C-34.8 3.67 -21.6 3.34 -8 3 C-7.67 2.01 -7.34 1.02 -7 0 C-2.25 -1.125 -2.25 -1.125 0 0 Z " fill="#D51011" transform="translate(472,255)"/>
<path d="M0 0 C4.95 0 9.9 0 15 0 C15 2.31 15 4.62 15 7 C15.99 7 16.98 7 18 7 C18.33 9.97 18.66 12.94 19 16 C18.34 16.33 17.68 16.66 17 17 C16.71125 16.195625 16.4225 15.39125 16.125 14.5625 C15.26737432 11.8673532 15.26737432 11.8673532 13 11 C13 7.7 13 4.4 13 1 C8.71 1 4.42 1 0 1 C0 0.67 0 0.34 0 0 Z " fill="#EA4B4A" transform="translate(94,195)"/>
<path d="M0 0 C2.97 0 5.94 0 9 0 C9 0.99 9 1.98 9 3 C6.36 3 3.72 3 1 3 C1 5.97 1 8.94 1 12 C0.67 12 0.34 12 0 12 C0 9.03 0 6.06 0 3 C-0.66 3 -1.32 3 -2 3 C-2 5.97 -2 8.94 -2 12 C-2.33 12 -2.66 12 -3 12 C-3 9.03 -3 6.06 -3 3 C-8.61 3 -14.22 3 -20 3 C-20 2.67 -20 2.34 -20 2 C-13.4 2 -6.8 2 0 2 C0 1.34 0 0.68 0 0 Z " fill="#F26462" transform="translate(218,193)"/>
<path d="M0 0 C1.32 0 2.64 0 4 0 C3.34 2.97 2.68 5.94 2 9 C1.01 9 0.02 9 -1 9 C-0.01 10.32 0.98 11.64 2 13 C1.01 13.495 1.01 13.495 0 14 C-2.1640625 13.22265625 -2.1640625 13.22265625 -4.625 12.0625 C-5.44226563 11.68222656 -6.25953125 11.30195313 -7.1015625 10.91015625 C-7.72804688 10.60980469 -8.35453125 10.30945313 -9 10 C-8.67 8.68 -8.34 7.36 -8 6 C-6.88625 6.20625 -5.7725 6.4125 -4.625 6.625 C-3.42875 6.74875 -2.2325 6.8725 -1 7 C1.1385485 4.8614515 1.42655063 3.86724686 2 1 C1.34 0.67 0.68 0.34 0 0 Z " fill="#EC5A59" transform="translate(281,197)"/>
<path d="M0 0 C0 3.63 0 7.26 0 11 C-0.66 11 -1.32 11 -2 11 C-2.33 11.99 -2.66 12.98 -3 14 C-3.33872513 12.58461283 -3.67074624 11.16762037 -4 9.75 C-4.185625 8.96109375 -4.37125 8.1721875 -4.5625 7.359375 C-5 5 -5 5 -5 1 C-5.99 0.67 -6.98 0.34 -8 0 C-5.13822943 -1.43088528 -3.06624227 -0.59991697 0 0 Z " fill="#F70304" transform="translate(384,195)"/>
<path d="M0 0 C3.96 1.98 7.92 3.96 12 6 C11.67 6.99 11.34 7.98 11 9 C3.25 8.125 3.25 8.125 1 7 C0.59270772 4.67843403 0.25561323 2.3431213 0 0 Z " fill="#E64141" transform="translate(113,211)"/>
<path d="M0 0 C3 1 3 1 4 3 C4.27544251 7.77433676 3.98413191 11.6140242 2 16 C-1.47325181 17.1577506 -4.36067448 17.06866652 -8 17 C-7.443125 16.7525 -6.88625 16.505 -6.3125 16.25 C-3.45232875 14.70396149 -1.28119099 13.34455741 1 11 C1.4161035 7.11636736 1.19131862 3.72287068 0 0 Z " fill="#E8474A" transform="translate(132,211)"/>
<path d="M0 0 C5.94 0 11.88 0 18 0 C18 0.33 18 0.66 18 1 C18.928125 1.268125 19.85625 1.53625 20.8125 1.8125 C23.76240366 2.91148371 25.05615186 3.62418561 27 6 C26.67 6.99 26.34 7.98 26 9 C25.278125 8.38125 24.55625 7.7625 23.8125 7.125 C21.21618062 5.16333647 19.05328334 4.04684 16 3 C16 2.34 16 1.68 16 1 C10.72 1 5.44 1 0 1 C0 0.67 0 0.34 0 0 Z " fill="#E80907" transform="translate(442,193)"/>
<path d="M0 0 C0 0.99 0 1.98 0 3 C0.99 3.33 1.98 3.66 3 4 C-0.67853181 5.22617727 -3.78203627 5.02899914 -7.625 4.9375 C-10.1512134 4.88864801 -10.1512134 4.88864801 -13 6 C-13 3 -13 3 -11.5625 1.3125 C-7.77217682 -0.62888504 -4.17972943 -0.24113824 0 0 Z " fill="#E93130" transform="translate(279,192)"/>
<path d="M0 0 C2.64 0 5.28 0 8 0 C8 0.33 8 0.66 8 1 C6.02 1 4.04 1 2 1 C2 4.63 2 8.26 2 12 C3.98 12 5.96 12 8 12 C7.34 12.66 6.68 13.32 6 14 C4.02 14 2.04 14 0 14 C0 9.38 0 4.76 0 0 Z " fill="#E06A68" transform="translate(451,205)"/>
<path d="M0 0 C1.98 0 3.96 0 6 0 C6.38218767 1.65614657 6.71395102 3.32457024 7 5 C6 6 6 6 2.9375 6.0625 C1.4834375 6.0315625 1.4834375 6.0315625 0 6 C0 4.02 0 2.04 0 0 Z " fill="#E26261" transform="translate(363,204)"/>
<path d="M0 0 C0.66 0 1.32 0 2 0 C3.25664978 2.90600261 4 4.79604584 4 8 C1.69 8 -0.62 8 -3 8 C-1.125 1.125 -1.125 1.125 0 0 Z " fill="#E56E72" transform="translate(330,211)"/>
<path d="M0 0 C4.29 0 8.58 0 13 0 C13 0.66 13 1.32 13 2 C12.10796875 2.13277344 11.2159375 2.26554688 10.296875 2.40234375 C9.12640625 2.57894531 7.9559375 2.75554687 6.75 2.9375 C5.00976562 3.19853516 5.00976562 3.19853516 3.234375 3.46484375 C0.76893039 3.8727736 -1.59424562 4.33901303 -4 5 C-3.67 4.01 -3.34 3.02 -3 2 C-2.01 2 -1.02 2 0 2 C0 1.34 0 0.68 0 0 Z " fill="#E12A2A" transform="translate(163,193)"/>
<path d="M0 0 C0.33 0.66 0.66 1.32 1 2 C0.01 3.485 0.01 3.485 -1 5 C-3.24658203 5.34057617 -3.24658203 5.34057617 -6.0078125 5.29296875 C-6.99394531 5.28330078 -7.98007812 5.27363281 -8.99609375 5.26367188 C-10.02863281 5.23853516 -11.06117188 5.21339844 -12.125 5.1875 C-13.68541016 5.16719727 -13.68541016 5.16719727 -15.27734375 5.14648438 C-17.85207627 5.11105228 -20.4257833 5.06165221 -23 5 C-23 4.67 -23 4.34 -23 4 C-22.01 3.96261719 -21.02 3.92523438 -20 3.88671875 C-12.8682103 3.55372743 -6.55711537 3.07782966 0 0 Z " fill="#D51E1A" transform="translate(465,224)"/>
<path d="M0 0 C0.99 0.33 1.98 0.66 3 1 C2.0409375 2.1446875 2.0409375 2.1446875 1.0625 3.3125 C-2.30410514 7.69928851 -2.27941867 11.65880457 -2 17 C-1.58268982 19.35529281 -1.58268982 19.35529281 -1 21 C-1.99 21 -2.98 21 -4 21 C-4 15.72 -4 10.44 -4 5 C-3.34 4.67 -2.68 4.34 -2 4 C-0.86649466 1.98330173 -0.86649466 1.98330173 0 0 Z " fill="#E95755" transform="translate(155,199)"/>
<path d="M0 0 C0.66 0 1.32 0 2 0 C2 0.66 2 1.32 2 2 C5.3 2.99 8.6 3.98 12 5 C12 5.33 12 5.66 12 6 C11.31292969 5.97679687 10.62585938 5.95359375 9.91796875 5.9296875 C9.01691406 5.91164062 8.11585938 5.89359375 7.1875 5.875 C6.29417969 5.85179687 5.40085937 5.82859375 4.48046875 5.8046875 C1.74597286 5.81714173 1.74597286 5.81714173 -1 8 C-0.67 5.36 -0.34 2.72 0 0 Z " fill="#EE3737" transform="translate(259,222)"/>
<path d="M0 0 C3.3 0 6.6 0 10 0 C10 0.33 10 0.66 10 1 C7.69 1 5.38 1 3 1 C2.731875 1.86625 2.46375 2.7325 2.1875 3.625 C1.02888013 6.91791964 -0.38209839 9.91127875 -2 13 C-2.33 13 -2.66 13 -3 13 C-3.28276773 8.19294854 -2.14468205 4.28936409 0 0 Z " fill="#EC5653" transform="translate(324,195)"/>
<path d="M0 0 C1.60101563 0.20882812 1.60101563 0.20882812 3.234375 0.421875 C4.31203125 0.55078125 5.3896875 0.6796875 6.5 0.8125 C7.72976562 0.99039063 7.72976562 0.99039063 8.984375 1.171875 C8.984375 1.831875 8.984375 2.491875 8.984375 3.171875 C1.064375 3.666875 1.064375 3.666875 -7.015625 4.171875 C-3.015625 0.171875 -3.015625 0.171875 0 0 Z " fill="#E30B0C" transform="translate(97.015625,191.828125)"/>
<path d="M0 0 C5.17609824 3.28157862 9.85989729 6.45924219 14 11 C11.03 10.505 11.03 10.505 8 10 C8 9.01 8 8.02 8 7 C6.824375 7.0928125 6.824375 7.0928125 5.625 7.1875 C4.75875 7.125625 3.8925 7.06375 3 7 C1.25372522 4.38058783 0.61277612 2.96175123 0 0 Z " fill="#E8514F" transform="translate(468,165)"/>
<path d="M0 0 C3.96 0 7.92 0 12 0 C12.74926071 3.66305234 13.2380014 6.42355152 12 10 C11.34 10 10.68 10 10 10 C10 7.03 10 4.06 10 1 C6.7 1 3.4 1 0 1 C0 0.67 0 0.34 0 0 Z " fill="#E42D2D" transform="translate(426,218)"/>
<path d="M0 0 C0.33 0 0.66 0 1 0 C1 4.95 1 9.9 1 15 C0.01 15 -0.98 15 -2 15 C-2 12.03 -2 9.06 -2 6 C-1.67 6 -1.34 6 -1 6 C-0.67 4.02 -0.34 2.04 0 0 Z " fill="#F1090C" transform="translate(54,213)"/>
<path d="M0 0 C0.33 0.99 0.66 1.98 1 3 C1.66 3 2.32 3 3 3 C3 3.99 3 4.98 3 6 C3.66 6 4.32 6 5 6 C5 8.64 5 11.28 5 14 C3.45713453 11.68570179 2.10007245 9.45428972 0.8125 7 C0.44769531 6.319375 0.08289063 5.63875 -0.29296875 4.9375 C-1 3 -1 3 0 0 Z " fill="#E74548" transform="translate(342,210)"/>
<path d="M0 0 C0.33 1.32 0.66 2.64 1 4 C-0.40691607 4.72750788 -1.82606022 5.43140353 -3.25 6.125 C-4.03890625 6.51945313 -4.8278125 6.91390625 -5.640625 7.3203125 C-8 8 -8 8 -10.296875 7.1171875 C-10.85890625 6.74851563 -11.4209375 6.37984375 -12 6 C-11.07767578 5.72736328 -11.07767578 5.72736328 -10.13671875 5.44921875 C-8.92435547 5.07216797 -8.92435547 5.07216797 -7.6875 4.6875 C-6.48673828 4.32205078 -6.48673828 4.32205078 -5.26171875 3.94921875 C-2.90035427 2.95817977 -1.66120007 1.91925057 0 0 Z " fill="#E95053" transform="translate(184,222)"/>
<path d="M0 0 C2.70583756 0.25560029 5.37210774 0.56759978 8.0625 0.9375 C9.20041992 1.08735352 9.20041992 1.08735352 10.36132812 1.24023438 C12.24154246 1.48856457 14.12086128 1.74365751 16 2 C16 2.33 16 2.66 16 3 C8.08 3.495 8.08 3.495 0 4 C-0.33 3.01 -0.66 2.02 -1 1 C-0.67 0.67 -0.34 0.34 0 0 Z " fill="#DF0E11" transform="translate(298,192)"/>
<path d="M0 0 C2.3125 0.1875 2.3125 0.1875 4 1 C3.67 2.65 3.34 4.3 3 6 C0.36 5.67 -2.28 5.34 -5 5 C-2.75 2.4375 -2.75 2.4375 0 0 Z " fill="#ED292A" transform="translate(28,166)"/>
<path d="M0 0 C1.9375 0.6875 1.9375 0.6875 4 2 C4.33 3.65 4.66 5.3 5 7 C0.71 6.67 -3.58 6.34 -8 6 C-8 5.67 -8 5.34 -8 5 C-3.545 4.505 -3.545 4.505 1 4 C0.67 2.68 0.34 1.36 0 0 Z " fill="#F38180" transform="translate(379,222)"/>
<path d="M0 0 C4.29 0.33 8.58 0.66 13 1 C12.67 1.66 12.34 2.32 12 3 C8.04 3 4.08 3 0 3 C0 2.01 0 1.02 0 0 Z " fill="#EB6260" transform="translate(311,226)"/>
<path d="M0 0 C4.54805635 -0.17835515 7.8794254 0.00214565 12 2 C12 2.33 12 2.66 12 3 C8.04 3 4.08 3 0 3 C0 2.01 0 1.02 0 0 Z " fill="#D43637" transform="translate(203,216)"/>
<path d="M0 0 C0.33 0 0.66 0 1 0 C1 3.3 1 6.6 1 10 C0.34 10 -0.32 10 -1 10 C-1.33 10.99 -1.66 11.98 -2 13 C-2.66 9.7 -3.32 6.4 -4 3 C-3.34 3 -2.68 3 -2 3 C-2 3.99 -2 4.98 -2 6 C-1.34 6 -0.68 6 0 6 C0 4.02 0 2.04 0 0 Z " fill="#E40A0A" transform="translate(383,196)"/>
<path d="M0 0 C2 0 2 0 3.55078125 1.14453125 C5.46500393 3.59535543 5.71993035 5.6303138 6.1875 8.6875 C6.42533203 10.17830078 6.42533203 10.17830078 6.66796875 11.69921875 C6.77753906 12.45847656 6.88710938 13.21773437 7 14 C4.60926851 11.06810006 3.15892693 8.27856712 1.8125 4.75 C1.46832031 3.85796875 1.12414062 2.9659375 0.76953125 2.046875 C0.51558594 1.37140625 0.26164062 0.6959375 0 0 Z " fill="#E86465" transform="translate(334,196)"/>
<path d="M0 0 C0.53109375 0.40992188 1.0621875 0.81984375 1.609375 1.2421875 C2.31578125 1.78101563 3.0221875 2.31984375 3.75 2.875 C4.44609375 3.40867188 5.1421875 3.94234375 5.859375 4.4921875 C8.21904196 6.23406233 8.21904196 6.23406233 12 8 C9.03 7.67 6.06 7.34 3 7 C2.67 6.01 2.34 5.02 2 4 C1.34 4 0.68 4 0 4 C0 2.68 0 1.36 0 0 Z " fill="#E5575B" transform="translate(154,220)"/>
<path d="M0 0 C0.66 0 1.32 0 2 0 C2 0.66 2 1.32 2 2 C2.99 2.33 3.98 2.66 5 3 C5.1875 6.375 5.1875 6.375 5 10 C4.01 10.66 3.02 11.32 2 12 C2.04125 10.7625 2.0825 9.525 2.125 8.25 C2.13658291 4.98362038 1.8568702 2.7853053 0 0 Z " fill="#E96564" transform="translate(282,211)"/>
<path d="M0 0 C0.33 0 0.66 0 1 0 C1.06058594 0.72445312 1.12117188 1.44890625 1.18359375 2.1953125 C1.61483433 7.17116533 2.07047641 12.08680391 3 17 C2.01 16.34 1.02 15.68 0 15 C-0.22137393 12.37302936 -0.28162025 9.99106036 -0.1875 7.375 C-0.17396484 6.66859375 -0.16042969 5.9621875 -0.14648438 5.234375 C-0.1111104 3.48925872 -0.05730221 1.74453392 0 0 Z " fill="#E24141" transform="translate(16,232)"/>
<path d="M0 0 C4 2 4 2 4.75 4.125 C4.8325 4.74375 4.915 5.3625 5 6 C4.01 6.495 4.01 6.495 3 7 C3 5.68 3 4.36 3 3 C2.34 3 1.68 3 1 3 C1 5.64 1 8.28 1 11 C0.34 10.67 -0.32 10.34 -1 10 C-0.67 6.7 -0.34 3.4 0 0 Z " fill="#E33230" transform="translate(364,218)"/>
<path d="M0 0 C2.31 0.33 4.62 0.66 7 1 C6.34 2.65 5.68 4.3 5 6 C4.34 6 3.68 6 3 6 C2.67 6.66 2.34 7.32 2 8 C2.33 6.35 2.66 4.7 3 3 C2.01 2.67 1.02 2.34 0 2 C0 1.34 0 0.68 0 0 Z " fill="#EE302C" transform="translate(258,198)"/>
<path d="M0 0 C0.33 0 0.66 0 1 0 C1 4.29 1 8.58 1 13 C-0.98 13.99 -0.98 13.99 -3 15 C-3 14.01 -3 13.02 -3 12 C-2.01 12 -1.02 12 0 12 C0 8.04 0 4.08 0 0 Z " fill="#E42424" transform="translate(480,235)"/>
<path d="M0 0 C1.32 0.33 2.64 0.66 4 1 C3.67 1.99 3.34 2.98 3 4 C0.36 3.67 -2.28 3.34 -5 3 C-5 2.67 -5 2.34 -5 2 C-3.35 2 -1.7 2 0 2 C0 1.34 0 0.68 0 0 Z " fill="#E26E70" transform="translate(121,216)"/>
<path d="M0 0 C0.33 0.66 0.66 1.32 1 2 C0.0625 4.125 0.0625 4.125 -1 6 C-3.31 5.67 -5.62 5.34 -8 5 C-7.4225 4.731875 -6.845 4.46375 -6.25 4.1875 C-3.9674132 2.98280141 -2.0262058 1.59201885 0 0 Z " fill="#EC5254" transform="translate(283,223)"/>
<path d="M0 0 C1.0828125 0.9590625 1.0828125 0.9590625 2.1875 1.9375 C4.98191184 3.98673535 6.61663274 4.61332946 10 5 C10 5.33 10 5.66 10 6 C8.741875 6.04125 7.48375 6.0825 6.1875 6.125 C5.47980469 6.14820313 4.77210937 6.17140625 4.04296875 6.1953125 C2 6 2 6 -1 4 C-0.67 2.68 -0.34 1.36 0 0 Z " fill="#EB6160" transform="translate(110,222)"/>
<path d="M0 0 C-5.75 5 -5.75 5 -8 5 C-7.67 3.35 -7.34 1.7 -7 0 C-2.25 -1.125 -2.25 -1.125 0 0 Z " fill="#E84444" transform="translate(472,255)"/>
<path d="M0 0 C0.66 0 1.32 0 2 0 C4 3 4 3 4 7 C3.01 7 2.02 7 1 7 C0.67 4.69 0.34 2.38 0 0 Z " fill="#F20509" transform="translate(365,221)"/>
<path d="M0 0 C0.66 0.33 1.32 0.66 2 1 C0.6875 3.5 0.6875 3.5 -1 6 C-1.99 6 -2.98 6 -4 6 C-4.33 6.66 -4.66 7.32 -5 8 C-5 6.68 -5 5.36 -5 4 C-2.5 1.75 -2.5 1.75 0 0 Z " fill="#E85653" transform="translate(21,171)"/>
<path d="M0 0 C1.6875 2 1.6875 2 3 4 C2.01 4.495 2.01 4.495 1 5 C-1.35981813 4.06421005 -3.69631264 3.06652192 -6 2 C-3 0 -3 0 0 0 Z " fill="#E84949" transform="translate(280,206)"/>
<path d="M0 0 C2.475 0.99 2.475 0.99 5 2 C4.67 2.66 4.34 3.32 4 4 C2.35 4 0.7 4 -1 4 C-0.67 2.68 -0.34 1.36 0 0 Z " fill="#DD5453" transform="translate(273,203)"/>
<path d="M0 0 C0 0.33 0 0.66 0 1 C-4.455 1.495 -4.455 1.495 -9 2 C-9 1.01 -9 0.02 -9 -1 C-5.79937313 -2.60031344 -3.27728194 -1.03173691 0 0 Z " fill="#DE5254" transform="translate(130,205)"/>
<path d="M0 0 C2.64 0.33 5.28 0.66 8 1 C8.33 2.65 8.66 4.3 9 6 C6 4 3 2 0 0 Z " fill="#E85455" transform="translate(460,196)"/>
<path d="M0 0 C0.33 0.66 0.66 1.32 1 2 C0.01 3.485 0.01 3.485 -1 5 C-3.625 5.1875 -3.625 5.1875 -6 5 C-5.34 4.67 -4.68 4.34 -4 4 C-4 3.34 -4 2.68 -4 2 C-2.68 1.34 -1.36 0.68 0 0 Z " fill="#EA3937" transform="translate(465,224)"/>
<path d="M0 0 C1.65 0 3.3 0 5 0 C4.67 1.32 4.34 2.64 4 4 C2.68 4 1.36 4 0 4 C0 2.68 0 1.36 0 0 Z " fill="#DF0E0E" transform="translate(364,205)"/>
<path d="M0 0 C0.66 0 1.32 0 2 0 C2 1.98 2 3.96 2 6 C0.68 6.33 -0.64 6.66 -2 7 C-1.34 4.69 -0.68 2.38 0 0 Z " fill="#E95053" transform="translate(132,198)"/>
</svg>
