<?xml version="1.0" encoding="UTF-8"?>
<svg version="1.1" xmlns="http://www.w3.org/2000/svg" width="3464" height="3464">
<path d="M0 0 C12.6923101 0.01062175 25.38459674 0.00323726 38.07690677 -0.00436877 C61.78600714 -0.01807536 85.49508805 -0.01778536 109.20419011 -0.00952614 C133.19450346 -0.00121423 157.18480417 0.00046787 181.1751183 -0.00573814 C182.31515952 -0.00602846 182.31515952 -0.00602846 183.47823188 -0.00632463 C190.44466928 -0.00809956 197.41110667 -0.00994131 204.37754403 -0.01186327 C221.838003 -0.0166726 239.29846211 -0.020442 256.75892147 -0.02350438 C257.9583951 -0.02371544 257.9583951 -0.02371544 259.18210051 -0.02393076 C298.49476428 -0.03074899 337.80742576 -0.02616656 377.12008938 -0.02042091 C378.83984074 -0.02017 380.5595921 -0.01991911 382.27934345 -0.01966823 C383.55783787 -0.01948168 383.55783787 -0.01948168 384.86216045 -0.01929136 C396.10400974 -0.01765155 407.34585902 -0.01604171 418.58770832 -0.01451147 C419.44718031 -0.01439399 420.3066523 -0.01427651 421.1921689 -0.01415546 C461.10908662 -0.00873993 501.02600322 -0.01004131 540.9429211 -0.01280284 C545.30404312 -0.01310223 549.66516514 -0.01338873 554.02628716 -0.01367666 C567.17280447 -0.01454852 580.31932178 -0.01543935 593.46583908 -0.01636946 C633.54973415 -0.01920237 673.63362922 -0.02100358 713.71752438 -0.02191437 C714.60984407 -0.02193497 715.50216376 -0.02195558 716.42152344 -0.02197681 C774.16721958 -0.02329205 831.91291445 -0.01999567 889.6586102 -0.01336563 C890.5797779 -0.01326028 891.5009456 -0.01315492 892.45002748 -0.01304638 C923.30006009 -0.00951782 954.15009267 -0.00574938 985.00012526 -0.00195648 C1078.27596137 0.00950364 1171.55179296 0.01578547 1338.13545027 -0.00230248 C1368.97789212 -0.0060924 1399.82033397 -0.00983816 1430.66277584 -0.01336563 C1431.58368873 -0.01347137 1432.50460161 -0.0135771 1433.45342095 -0.01368604 C1491.17023469 -0.02030704 1548.88704755 -0.02324716 1606.60386166 -0.02191437 C1607.49587701 -0.0218941 1608.38789235 -0.02187383 1609.30693847 -0.02185295 C1649.36897357 -0.02093258 1689.43100859 -0.01901724 1729.49304361 -0.01618286 C1742.63357846 -0.01525431 1755.77411331 -0.01437129 1768.91464817 -0.01350371 C1773.27324904 -0.01321574 1777.63184991 -0.01292367 1781.99045079 -0.01262214 C1821.90486033 -0.00986918 1861.81926836 -0.00905549 1901.73367772 -0.01451147 C1903.02206016 -0.01468685 1903.02206016 -0.01468685 1904.33647053 -0.01486576 C1915.57166122 -0.01640087 1926.8068519 -0.01802885 1938.04204259 -0.01966823 C1938.89368986 -0.01979247 1939.74533713 -0.01991671 1940.62279189 -0.02004471 C1942.34096245 -0.02029539 1944.05913302 -0.02054629 1945.77730358 -0.0207974 C1985.03902478 -0.02652068 2024.30074328 -0.03041277 2063.56246457 -0.02350438 C2064.3610484 -0.02336432 2065.15963224 -0.02322426 2065.98241558 -0.02307995 C2083.41520199 -0.01998772 2100.8479881 -0.01602804 2118.28077411 -0.01121854 C2125.23593864 -0.0093112 2132.19110318 -0.00750928 2139.14626774 -0.00573814 C2140.28420744 -0.00544377 2140.28420744 -0.00544377 2141.44513581 -0.00514345 C2165.39860295 0.00100433 2189.352057 -0.00194411 2213.30552315 -0.01028846 C2237.6011751 -0.01870972 2261.89680324 -0.01656237 2286.19245271 -0.0020029 C2298.77732535 0.00525289 2311.36215398 0.00795875 2323.94702497 -0.00322085 C2420.14280169 -0.08390287 2420.14280169 -0.08390287 2465.06192509 3.19989746 C2467.69376644 3.39086486 2470.32608996 3.57287069 2472.9587498 3.7521779 C2474.62920308 3.86644772 2476.29965112 3.98079411 2477.9700931 4.0952289 C2478.70510929 4.1455293 2479.44012548 4.1958297 2480.19741488 4.24765435 C2652.40364202 16.2860437 2652.40364202 16.2860437 2697.66069302 65.38846504 C2698.15569302 66.87346504 2698.15569302 66.87346504 2698.66069302 68.38846504 C2699.32069302 68.38846504 2699.98069302 68.38846504 2700.66069302 68.38846504 C2700.99069302 70.03846504 2701.32069302 71.68846504 2701.66069302 73.38846504 C2702.32069302 73.38846504 2702.98069302 73.38846504 2703.66069302 73.38846504 C2704.50003123 76.31445387 2704.78694483 78.9129254 2704.79064485 81.95295363 C2704.79417327 82.87129012 2704.79770169 83.7896266 2704.80133703 84.73579147 C2704.80013926 85.74307449 2704.79894148 86.75035751 2704.79770741 87.78816425 C2704.80035924 88.86388892 2704.80301106 89.9396136 2704.80574325 91.04793599 C2704.81345464 94.6832795 2704.81399612 98.31858934 2704.81459317 101.95394051 C2704.81860656 104.57435219 2704.82304458 107.19476325 2704.82787272 109.81517356 C2704.8389501 116.28139542 2704.84459739 122.74761185 2704.8485816 129.21384153 C2704.85358964 136.95679672 2704.86431692 144.69974138 2704.87506334 152.44269035 C2704.90069632 171.15829972 2704.91572898 189.87391319 2704.9285738 208.58953507 C2704.93282795 214.78744276 2704.93739366 220.98535014 2704.94215712 227.18325745 C2704.96741509 260.12983208 2704.98946572 293.0764072 2705.00188527 326.02298939 C2705.00480665 333.65677751 2705.00777416 341.29056562 2705.01079068 348.92435371 C2705.01116158 349.87276529 2705.01153249 350.82117687 2705.01191464 351.79832819 C2705.0240732 382.55586679 2705.05502253 413.31334821 2705.0967122 444.07085995 C2705.13948423 475.6844928 2705.16612422 507.29809544 2705.17135998 538.91175802 C2705.17210044 543.37536124 2705.17301113 547.83896442 2705.17401776 552.3025676 C2705.17420837 553.18105849 2705.17439899 554.05954939 2705.17459538 554.96466122 C2705.17811099 569.11103748 2705.19841813 583.25734218 2705.22481439 597.40369215 C2705.25093937 611.61881306 2705.25869476 625.83385116 2705.2477131 640.04899265 C2705.24173002 648.4966766 2705.2496808 656.94407995 2705.27754394 665.39172151 C2705.29477882 671.03404669 2705.29386145 676.67618024 2705.27817625 682.31850945 C2705.2697545 685.53388472 2705.27197451 688.74861594 2705.29078771 691.96396287 C2705.3098296 695.42964303 2705.2981461 698.89391296 2705.27872548 702.35956013 C2705.2915747 703.35513731 2705.30442392 704.3507145 2705.31766251 705.3764607 C2705.23298417 712.23500846 2703.48766318 716.72959719 2699.66069302 722.38846504 C2699.00069302 723.37846504 2698.34069302 724.36846504 2697.66069302 725.38846504 C2697.00069302 725.38846504 2696.34069302 725.38846504 2695.66069302 725.38846504 C2695.33069302 726.37846504 2695.00069302 727.36846504 2694.66069302 728.38846504 C2645.397472 772.13006409 2559.0069162 777.94995348 2496.66069302 784.38846504 C2495.492319 784.50915352 2494.32394497 784.62984199 2493.12016568 784.7541877 C2486.64009729 785.40311427 2480.15668863 785.92889922 2473.66069302 786.38846504 C2471.95405484 786.51366524 2471.95405484 786.51366524 2470.21293911 786.64139473 C2466.36279647 786.9207633 2462.51199 787.1880096 2458.66069302 787.45096504 C2457.52994351 787.53048408 2456.399194 787.61000313 2455.23417935 787.69193184 C2427.49000362 789.49074463 2399.71011681 789.53606563 2371.92153334 789.5158737 C2366.60790563 789.51315227 2361.29428053 789.51633655 2355.98065311 789.51871055 C2346.66045462 789.52208242 2337.34026199 789.5217875 2328.02006338 789.519027 C2314.06735687 789.5149132 2300.11465507 789.51661891 2286.16194845 789.51940965 C2262.37553384 789.52399854 2238.58912137 789.52387189 2214.80270657 789.52112877 C2190.70958111 789.51836528 2166.61645704 789.51779175 2142.52333149 789.5198661 C2141.76211527 789.51993062 2141.00089905 789.51999513 2140.21661567 789.5200616 C2133.24004193 789.52065318 2126.26346819 789.52126709 2119.28689445 789.52190781 C2101.79574491 789.52351158 2084.30459536 789.52476775 2066.81344578 789.52578818 C2065.61144523 789.52585853 2065.61144523 789.52585853 2064.38516185 789.52593031 C2024.92375803 789.52820682 1985.46235446 789.52667392 1946.00095066 789.52476036 C1944.27321461 789.52467672 1942.54547856 789.52459309 1940.8177425 789.52450946 C1939.53332613 789.52444728 1939.53332613 789.52444728 1938.22296196 789.52438384 C1926.93020859 789.52383729 1915.63745523 789.52330068 1904.34470186 789.52279055 C1903.48143706 789.52275138 1902.61817226 789.52271222 1901.72874792 789.52267188 C1861.69408491 789.52086929 1821.65942202 789.52129959 1781.62475899 789.522221 C1777.25505631 789.5223208 1772.88535362 789.5224163 1768.51565094 789.52251228 C1755.3442918 789.52280288 1742.17293267 789.52309982 1729.00157354 789.52340988 C1688.83828411 789.52435433 1648.67499468 789.52495463 1608.51170525 789.52525818 C1607.17039345 789.52526848 1607.17039345 789.52526848 1605.80198444 789.52527899 C1547.90523495 789.52571762 1490.0084856 789.52461751 1432.11173615 789.5224086 C1431.18769513 789.52237348 1430.26365411 789.52233836 1429.31161185 789.52230218 C1398.36233649 789.52112589 1367.41306114 789.51986979 1336.46378578 789.51860555 C1242.87916116 789.51478532 1149.29453703 789.51269144 982.16448712 789.51872088 C951.22418923 789.51998413 920.28389134 789.52123267 889.34359345 789.5224086 C888.41984614 789.52244384 887.49609883 789.52247909 886.54435918 789.5225154 C828.67839741 789.52472133 770.81243574 789.52570264 712.94647393 789.52525818 C712.05255891 789.52525142 711.1586439 789.52524467 710.23764055 789.5252377 C670.09588978 789.52493096 629.95413902 789.5242926 589.81238826 789.52334767 C576.64660466 789.52303814 563.48082106 789.5227438 550.31503745 789.52245463 C545.94775965 789.52235863 541.58048184 789.52226128 537.21320403 789.52216077 C497.17913919 789.5212422 457.14507451 789.52097436 417.11100969 789.52279055 C416.24833316 789.52282952 415.38565663 789.52286849 414.49683838 789.52290864 C403.21112157 789.5234204 391.92540477 789.52396305 380.63968796 789.52450946 C379.78413092 789.52455088 378.92857388 789.52459229 378.04709087 789.52463496 C376.32101414 789.52471852 374.5949374 789.52480215 372.86886066 789.52488586 C333.46099481 789.52679193 294.05312926 789.52809456 254.6452634 789.52578818 C253.84494243 789.52574149 253.04462146 789.52569481 252.22004834 789.5256467 C234.75591382 789.52461634 217.29177932 789.52329665 199.82764484 789.5216929 C192.86158176 789.52105705 185.89551869 789.52045643 178.92945561 789.5198661 C177.78967404 789.51976798 177.78967404 789.51976798 176.62686658 789.51966787 C152.56730027 789.5176129 128.5077354 789.51860793 104.44816919 789.52138287 C80.08102741 789.52417928 55.71388827 789.52349381 31.34674677 789.51862102 C17.49829064 789.51595718 3.64984103 789.51599971 -10.19861477 789.52010262 C-19.4095628 789.5225562 -28.62050577 789.52134914 -37.83145319 789.51723576 C-43.04389732 789.51500811 -48.25632854 789.51426203 -53.46877207 789.51805228 C-83.52226674 789.5383718 -113.5335105 789.25456423 -143.52680698 787.13846504 C-144.43042972 787.07566353 -145.33405246 787.01286201 -146.26505771 786.94815742 C-203.54738471 782.91308576 -261.68596037 775.66557838 -316.33930698 757.38846504 C-318.16479126 756.7959045 -319.99031101 756.20345324 -321.81586948 755.61112129 C-331.83059657 752.29717745 -341.21270011 748.31333144 -350.51704136 743.34549629 C-352.50892423 742.29938417 -354.52308395 741.30620673 -356.54243198 740.31424629 C-360.49484552 738.34617403 -363.87208885 736.13334606 -367.33930698 733.38846504 C-367.33930698 732.72846504 -367.33930698 732.06846504 -367.33930698 731.38846504 C-368.14368198 731.12034004 -368.94805698 730.85221504 -369.77680698 730.57596504 C-371.04524448 729.98815254 -371.04524448 729.98815254 -372.33930698 729.38846504 C-372.83430698 727.90346504 -372.83430698 727.90346504 -373.33930698 726.38846504 C-373.99930698 726.38846504 -374.65930698 726.38846504 -375.33930698 726.38846504 C-377.66770048 724.61888598 -378.29219504 723.57262988 -379.02680698 720.70096504 C-379.12993198 719.93784004 -379.23305698 719.17471504 -379.33930698 718.38846504 C-379.99930698 718.38846504 -380.65930698 718.38846504 -381.33930698 718.38846504 C-382.28222223 715.55971929 -382.46440731 713.84454482 -382.46465614 710.91677349 C-382.46715966 709.9936695 -382.46966318 709.07056552 -382.47224256 708.11948868 C-382.4699014 707.10173203 -382.46756023 706.08397538 -382.46514812 705.03537762 C-382.46660156 703.95255531 -382.468055 702.86973301 -382.46955249 701.7540979 C-382.4732315 698.08863249 -382.46971728 694.42320817 -382.46629062 690.757743 C-382.46744169 688.11813112 -382.46898789 685.47852218 -382.47101787 682.83891111 C-382.47463826 677.08074375 -382.47451466 671.32258575 -382.47197071 665.56441795 C-382.46819806 657.00195851 -382.47011684 648.43950702 -382.47317901 639.87704764 C-382.47845338 624.58682485 -382.47798492 609.29660624 -382.4751001 594.00638306 C-382.47258778 580.62528927 -382.47192633 567.24419701 -382.47312275 553.86310303 C-382.47319913 552.97662781 -382.47327552 552.09015258 -382.47335422 551.17681448 C-382.47366554 547.5786071 -382.47398394 543.98039973 -382.47431398 540.38219236 C-382.47737532 506.60460756 -382.47459586 472.82702542 -382.46921708 439.04944104 C-382.46447163 409.02060191 -382.46489549 378.99176702 -382.46967807 348.96292793 C-382.47502943 315.24991773 -382.47715783 281.53690989 -382.47406581 247.82389932 C-382.47374508 244.23181382 -382.47343224 240.63972832 -382.47312275 237.04764282 C-382.47304367 236.16313571 -382.47296459 235.27862859 -382.47288312 234.36731823 C-382.47174425 220.99323821 -382.47307852 207.61915989 -382.4756023 194.24508011 C-382.4784569 179.04180645 -382.47775672 163.83853763 -382.47232155 148.63526458 C-382.46937801 140.11998494 -382.46920403 131.60471576 -382.47296773 123.08943638 C-382.47520239 117.4083902 -382.47382858 111.72735245 -382.46946296 106.04630753 C-382.46707392 102.8048798 -382.46683586 99.56347721 -382.46986894 96.32204938 C-382.47288135 92.8371437 -382.46981953 89.35229618 -382.46514812 85.86739361 C-382.46748929 84.85197812 -382.46983045 83.83656264 -382.47224256 82.79037699 C-382.46973905 81.86476948 -382.46723553 80.93916197 -382.46465614 79.98550575 C-382.46458839 79.1881801 -382.46452063 78.39085444 -382.46445081 77.56936741 C-382.33941624 75.3903692 -381.94086749 73.48183253 -381.33930698 71.38846504 C-380.67930698 71.38846504 -380.01930698 71.38846504 -379.33930698 71.38846504 C-379.00930698 70.06846504 -378.67930698 68.74846504 -378.33930698 67.38846504 C-377.67930698 67.38846504 -377.01930698 67.38846504 -376.33930698 67.38846504 C-376.27743198 66.76971504 -376.21555698 66.15096504 -376.15180698 65.51346504 C-375.74961948 64.46159004 -375.74961948 64.46159004 -375.33930698 63.38846504 C-373.68726242 62.6863461 -372.02006929 62.01875091 -370.33930698 61.38846504 C-370.00930698 60.39846504 -369.67930698 59.40846504 -369.33930698 58.38846504 C-367.90327182 57.14920723 -367.90327182 57.14920723 -366.05024448 55.93534004 C-365.36389927 55.48449043 -364.67755405 55.03364082 -363.9704105 54.5691291 C-363.22589634 54.09700996 -362.48138218 53.62489082 -361.71430698 53.13846504 C-360.94594516 52.64829903 -360.17758335 52.15813301 -359.38593784 51.65311348 C-352.30824358 47.22472605 -345.03933768 43.6011895 -337.33930698 40.38846504 C-336.69010288 40.11083321 -336.04089878 39.83320137 -335.37202182 39.54715645 C-315.61568283 31.1606168 -294.87052772 25.7689187 -273.96430698 21.13846504 C-272.87656986 20.89738518 -272.87656986 20.89738518 -271.76685825 20.65143501 C-266.63291933 19.52126359 -261.48963886 18.44124169 -256.33930698 17.38846504 C-255.54659397 17.22540871 -254.75388095 17.06235237 -253.93714634 16.89435493 C-239.27639611 13.90633683 -224.54891226 11.74858447 -209.71430698 9.82596504 C-208.54935703 9.67405708 -207.38440708 9.52214912 -206.18415561 9.36563789 C-189.87633609 7.24878689 -173.5777588 5.19162574 -157.16726175 4.06446719 C-156.40527771 4.01204429 -155.64329367 3.9596214 -154.85821921 3.90560993 C-153.20751447 3.79226919 -151.55678781 3.6792472 -149.90604147 3.56651395 C-147.33566718 3.38821256 -144.76603293 3.20124392 -142.19636294 3.01308791 C-94.84202726 -0.39373502 -47.44814459 -0.0421507 0 0 Z " fill="#FE1325" transform="translate(571.3393069802551,1343.6115349588508)"/>
<path d="M0 0 C21.6871875 -0.0928125 21.6871875 -0.0928125 43.8125 -0.1875 C48.33815674 -0.21481201 52.86381348 -0.24212402 57.52661133 -0.27026367 C63.15368652 -0.28381348 63.15368652 -0.28381348 65.80741882 -0.28633118 C67.61827319 -0.29086757 69.42911988 -0.30126763 71.23991394 -0.31672668 C87.60414717 -0.44915976 104.021436 0.44429371 119.5 6.25 C120.33257324 6.55373535 121.16514648 6.8574707 122.02294922 7.17041016 C140.59050234 14.20077249 154.15120784 27.87094743 162.68359375 45.6796875 C168.08040401 59.29182021 169.23819665 73.3626855 169.25 87.875 C169.25067474 88.61610016 169.25134949 89.35720032 169.25204468 90.12075806 C169.22318805 110.03533383 166.77397165 129.24162388 155 146 C154.04673828 147.35738281 154.04673828 147.35738281 153.07421875 148.7421875 C139.16655986 167.09928022 117.31359678 174.1551423 95.31869507 177.37808228 C86.39260061 178.53257836 77.44012312 178.36965891 68.45703125 178.29296875 C66.68925259 178.28854027 64.92146994 178.28549064 63.15368652 178.28381348 C56.70656311 178.26828902 50.25952471 178.22640733 43.8125 178.1875 C29.354375 178.125625 14.89625 178.06375 0 178 C0 119.26 0 60.52 0 0 Z " fill="#FFFCFC" transform="translate(3005,1643)"/>
<path d="M0 0 C28.276875 -0.0928125 28.276875 -0.0928125 57.125 -0.1875 C63.05355957 -0.21481201 68.98211914 -0.24212402 75.09033203 -0.27026367 C82.39038086 -0.28381348 82.39038086 -0.28381348 85.81954956 -0.28633118 C88.18895157 -0.29090531 90.55834708 -0.30138808 92.92770386 -0.31672668 C116.46586519 -0.46134621 136.47301444 1.44244561 154.625 18 C162.43852363 26.12825401 167.15185461 36.77721904 168 48 C168.0928125 49.15113281 168.185625 50.30226563 168.28125 51.48828125 C168.91826087 66.82431784 163.82016701 79.49637579 154 91 C149.10930377 95.73928148 141.24957494 103 134 103 C139.84825696 114.31101787 145.73610214 125.59354454 151.875 136.75 C156.59368395 145.33754628 161.17209754 153.99192116 165.6875 162.6875 C166.15310333 163.58160583 166.15310333 163.58160583 166.62811279 164.49377441 C167.50855204 166.18592083 168.38521643 167.88002973 169.26171875 169.57421875 C169.76662842 170.54963623 170.27153809 171.52505371 170.79174805 172.5300293 C172 175 172 175 173 178 C151.88 178 130.76 178 109 178 C106.36 172.72 103.72 167.44 101 162 C99.91976562 159.85113281 98.83953125 157.70226563 97.7265625 155.48828125 C92.4697299 145.02940067 87.24803259 134.55553672 82.1875 124 C81.76098145 123.11610596 81.33446289 122.23221191 80.89501953 121.3215332 C80.51071777 120.51417725 80.12641602 119.70682129 79.73046875 118.875 C79.39426514 118.17117188 79.05806152 117.46734375 78.71166992 116.7421875 C78 115 78 115 78 113 C70.74 113 63.48 113 56 113 C56 134.45 56 155.9 56 178 C37.52 178 19.04 178 0 178 C0 119.26 0 60.52 0 0 Z " fill="#FFFCFD" transform="translate(2430,1643)"/>
<path d="M0 0 C7.8506607 6.53995351 14.60930726 13.58252174 19.02148438 22.85205078 C19.32441406 23.46757813 19.62734375 24.08310547 19.93945312 24.71728516 C24.37680267 33.81878211 23.27148438 36.07132446 23.27148438 48.66455078 C5.45148438 48.66455078 -12.36851562 48.66455078 -30.72851562 48.66455078 C-31.71851563 44.20955078 -31.71851563 44.20955078 -32.72851562 39.66455078 C-37.34390081 32.49855799 -44.48531686 28.47883403 -52.64819336 26.10668945 C-64.62519174 23.56117319 -78.34781727 25.22444569 -89.08789062 30.91455078 C-96.72135421 35.96526353 -100.66540696 44.07641975 -103.13305664 52.66259766 C-104.20686807 58.0761218 -104.13294549 63.50213008 -104.06469727 69.00439453 C-104.04113208 71.02954251 -104.04415476 73.05336277 -104.05078125 75.07861328 C-103.98697225 86.91228289 -103.5606629 97.68652778 -96.72851562 107.66455078 C-96.3546875 108.27943359 -95.98085937 108.89431641 -95.59570312 109.52783203 C-90.67453117 116.50722999 -81.69679235 120.62913363 -73.4375 122.06201172 C-60.88464334 123.40286133 -48.48224011 120.93926758 -37.95507812 113.77783203 C-35.56693942 111.51119512 -34.35995104 109.57572508 -32.97851562 106.60205078 C-32.57117187 105.74482422 -32.16382813 104.88759766 -31.74414062 104.00439453 C-30.6531004 101.58439434 -30.6531004 101.58439434 -29.72851562 98.66455078 C-43.25851562 98.66455078 -56.78851562 98.66455078 -70.72851562 98.66455078 C-70.72851562 86.78455078 -70.72851562 74.90455078 -70.72851562 62.66455078 C-39.37851563 62.66455078 -8.02851562 62.66455078 24.27148438 62.66455078 C24.27148438 95.33455078 24.27148438 128.00455078 24.27148438 161.66455078 C14.37148437 161.66455078 4.47148438 161.66455078 -5.72851562 161.66455078 C-7.37851563 156.38455078 -9.02851562 151.10455078 -10.72851562 145.66455078 C-14.25267357 147.42662975 -17.41714727 149.35469091 -20.72851562 151.47705078 C-31.52208819 158.18923727 -42.22293092 161.62394821 -54.72851562 163.66455078 C-56.29472656 163.94492188 -56.29472656 163.94492188 -57.89257812 164.23095703 C-84.55222206 167.24441984 -113.87093025 164.31845536 -135.60351562 147.35205078 C-152.27511723 132.80406461 -161.10841692 111.32306888 -162.90823364 89.48382568 C-163.13453206 85.09840376 -163.15726439 80.71820508 -163.11962891 76.32788086 C-163.10349347 74.09898999 -163.11961989 71.87190439 -163.13867188 69.64306641 C-163.17325906 46.25569497 -156.46796433 24.18540179 -140.05273438 6.93408203 C-106.31526193 -26.00956753 -37.48547661 -28.96123687 0 0 Z " fill="#FFFCFD" transform="translate(1334.728515625,1658.33544921875)"/>
<path d="M0 0 C50.49 0 100.98 0 153 0 C153 14.19 153 28.38 153 43 C120.99 43 88.98 43 56 43 C56 50.92 56 58.84 56 67 C83.39 67 110.78 67 139 67 C139 80.53 139 94.06 139 108 C111.61 108 84.22 108 56 108 C56.33 116.91 56.66 125.82 57 135 C105.51 135.495 105.51 135.495 155 136 C155 149.86 155 163.72 155 178 C103.85 178 52.7 178 0 178 C0 119.26 0 60.52 0 0 Z " fill="#FFFDFD" transform="translate(1395,1643)"/>
<path d="M0 0 C2.74612427 -0.36076355 2.74612427 -0.36076355 6.28564453 -0.34057617 C6.92967224 -0.34101425 7.57369995 -0.34145233 8.23724365 -0.34190369 C10.36940664 -0.33981094 12.50078662 -0.31645865 14.6328125 -0.29296875 C16.10968598 -0.28737448 17.58656502 -0.28310359 19.06344604 -0.28010559 C22.95326063 -0.26864335 26.8427399 -0.23916473 30.73242188 -0.20599365 C34.70047469 -0.17532222 38.6685816 -0.16160655 42.63671875 -0.14648438 C50.42463214 -0.11429599 58.21226911 -0.06308345 66 0 C69.39633441 7.96539912 72.53038589 15.98510641 75.44921875 24.13671875 C75.85904495 25.27317841 76.26887115 26.40963806 76.69111633 27.58053589 C77.79589628 30.64481155 78.89824625 33.70994883 79.99981689 36.77537918 C81.8834288 42.01281123 83.77549162 47.24720251 85.66632462 52.48203087 C86.14754682 53.81437502 86.62867387 55.14675355 87.10970688 56.47916603 C91.69839819 69.18886308 96.33463464 81.88074972 101 94.5625 C101.35393829 95.52530884 101.70787659 96.48811768 102.07254028 97.48010254 C106.13516012 108.53050224 110.21155654 119.57577568 114.29766846 130.61750793 C116.01971866 135.27118262 117.73974608 139.92560434 119.45940018 144.58016491 C120.88986272 148.45122956 122.32338631 152.32114282 123.75922585 156.19021606 C124.85502013 159.14541199 125.94668732 162.10213259 127.0390625 165.05859375 C127.44121979 166.13938202 127.84337708 167.22017029 128.25772095 168.33370972 C128.62078339 169.31856354 128.98384583 170.30341736 129.35791016 171.31811523 C129.67668121 172.17847885 129.99545227 173.03884247 130.32388306 173.92527771 C131 176 131 176 131 178 C110.87 178 90.74 178 70 178 C64 159 64 159 63 154 C42.21 153.67 21.42 153.34 0 153 C-0.66 156.3 -1.32 159.6 -2 163 C-3.65 167.95 -5.3 172.9 -7 178 C-25.81 178 -44.62 178 -64 178 C-61.75384615 165.64615385 -61.75384615 165.64615385 -60.125 161.5 C-59.774375 160.58605469 -59.42375 159.67210937 -59.0625 158.73046875 C-58.5365625 157.37888672 -58.5365625 157.37888672 -58 156 C-57.37081142 154.27235302 -56.74586324 152.54315629 -56.125 150.8125 C-54.73858627 146.99444656 -53.32052265 143.189448 -51.88549805 139.3894043 C-49.19713755 132.26848536 -46.59898425 125.12206229 -44.09228516 117.93505859 C-42.95828123 114.68858549 -41.80371603 111.45343293 -40.58862305 108.23632812 C-39.09388759 104.26114909 -37.63478153 100.27391154 -36.1875 96.28125 C-35.93250732 95.57907349 -35.67751465 94.87689697 -35.41479492 94.15344238 C-34.6094673 91.93577176 -33.8046646 89.71791127 -33 87.5 C-31.93798213 84.57274137 -30.87540559 81.6456864 -29.8125 78.71875 C-29.57490967 78.063302 -29.33731934 77.407854 -29.0925293 76.73254395 C-27.71263276 72.9328813 -26.30286615 69.14565073 -24.87991333 65.36184692 C-23.116678 60.62900359 -21.39740074 55.87997758 -19.66963005 51.13409996 C-18.19956031 47.09825204 -16.72532366 43.06392366 -15.25189877 39.02929974 C-13.96113662 35.49412117 -12.67183424 31.95842251 -11.38549805 28.42163086 C-10.13410295 24.98116658 -8.87884856 21.54213298 -7.62094307 18.10404396 C-7.14389647 16.79802297 -6.66826098 15.49148564 -6.19407463 14.18442345 C-5.53272385 12.36208682 -4.86597121 10.54171333 -4.19897461 8.72143555 C-3.82163681 7.68633347 -3.44429901 6.65123138 -3.05552673 5.58476257 C-2 3 -2 3 0 0 Z " fill="#FFFCFC" transform="translate(2277,1643)"/>
<path d="M0 0 C50.16 0 100.32 0 152 0 C152 14.19 152 28.38 152 43 C120.32 43 88.64 43 56 43 C56 50.92 56 58.84 56 67 C83.39 67 110.78 67 139 67 C139 80.53 139 94.06 139 108 C111.61 108 84.22 108 56 108 C56 117.24 56 126.48 56 136 C88.34 136 120.68 136 154 136 C154 149.86 154 163.72 154 178 C103.18 178 52.36 178 0 178 C0 119.26 0 60.52 0 0 Z " fill="#FFFDFD" transform="translate(461,1643)"/>
<path d="M0 0 C50.16 0 100.32 0 152 0 C152 14.19 152 28.38 152 43 C120.32 43 88.64 43 56 43 C56 50.92 56 58.84 56 67 C83.39 67 110.78 67 139 67 C139 80.53 139 94.06 139 108 C111.61 108 84.22 108 56 108 C56 117.24 56 126.48 56 136 C88.01 136 120.02 136 153 136 C153 149.86 153 163.72 153 178 C102.51 178 52.02 178 0 178 C0 119.26 0 60.52 0 0 Z " fill="#FFFDFD" transform="translate(2819,1643)"/>
<path d="M0 0 C1.04572678 -0.00010574 1.04572678 -0.00010574 2.11257935 -0.00021362 C26.45033187 0.09377328 49.40750065 4.8840391 67.28125 22.4140625 C76.26813756 33.14840042 78.8125 44.70201458 78.8125 58.4375 C61.3225 58.4375 43.8325 58.4375 25.8125 58.4375 C25.1525 55.1375 24.4925 51.8375 23.8125 48.4375 C19.07201855 43.3738039 13.80746753 40.33366131 6.84375 40.0390625 C5.00000043 40.03114941 3.15612132 40.03935831 1.3125 40.0625 C0.38824219 40.05089844 -0.53601562 40.03929687 -1.48828125 40.02734375 C-8.03983167 40.05546199 -12.21416508 41.24662164 -17.5625 45.1875 C-19.92778269 48.4625068 -19.81030726 50.49305401 -19.1875 54.4375 C-14.84076389 60.95760417 -6.32696705 63.55867467 1.05078125 65.125 C3.09587009 65.45099175 5.14411453 65.75793215 7.1953125 66.04296875 C10.22598041 66.49983063 12.93623196 67.39158435 15.8125 68.4375 C19.97828523 69.59845654 23.8191664 70.48187349 28.125 70.8125 C32.61512803 71.26304006 36.46178946 72.57243667 40.65234375 74.2109375 C43.01158178 75.12663681 45.35957152 75.97658606 47.75390625 76.7890625 C55.84674973 79.58166342 62.49860982 82.44974051 68.8125 88.4375 C69.77929688 89.34048828 69.77929688 89.34048828 70.765625 90.26171875 C74.03366197 93.42677136 77.26099006 96.66126529 79.8125 100.4375 C79.8125 101.7575 79.8125 103.0775 79.8125 104.4375 C80.4725 104.4375 81.1325 104.4375 81.8125 104.4375 C87.38939599 117.94819444 85.75709015 133.03831835 80.625 146.375 C78.05043979 152.30932353 74.8512607 157.39564841 70.8125 162.4375 C70.31363281 163.06269531 69.81476563 163.68789062 69.30078125 164.33203125 C57.16686909 177.87188789 37.27417396 183.14746245 19.8125 184.4375 C14.06147985 184.66589014 8.31761637 184.7384173 2.5625 184.75 C1.84601288 184.75358521 1.12952576 184.75717041 0.3913269 184.76086426 C-22.2065918 184.82162612 -47.97709494 182.21764074 -65.08984375 165.80859375 C-72.12497888 157.8564019 -78.46921164 148.80779067 -80.375 138.1875 C-80.53355469 137.35734375 -80.69210937 136.5271875 -80.85546875 135.671875 C-81.34014019 130.95060494 -81.1875 126.18358232 -81.1875 121.4375 C-63.3675 121.4375 -45.5475 121.4375 -27.1875 121.4375 C-26.5275 124.7375 -25.8675 128.0375 -25.1875 131.4375 C-23.79864752 134.25530534 -23.79864752 134.25530534 -22.1875 136.4375 C-21.94128906 137.10523438 -21.69507813 137.77296875 -21.44140625 138.4609375 C-19.62116552 141.33022663 -17.89733118 141.45030399 -14.625 142.1875 C-3.17886728 144.50971983 12.81705541 146.05449343 22.9375 139.375 C25.14644806 135.91431471 25.73889852 133.65452023 25.46875 129.58203125 C24.66475439 126.95468846 23.87965356 126.16790911 21.625 124.625 C11.30864854 119.33036459 -0.77650311 117.10875542 -12.015625 114.57421875 C-37.16128555 108.88893085 -58.98314478 103.3541196 -73.5 80.375 C-80.13747932 69.73684821 -79.87185739 54.29509621 -77.81689453 42.26855469 C-75.75660962 34.05742959 -70.91545167 27.49871431 -65.1875 21.4375 C-64.51976562 20.72851562 -63.85203125 20.01953125 -63.1640625 19.2890625 C-52.8216444 9.25422561 -39.96227015 5.1987909 -26.1875 2.4375 C-25.39480713 2.26162354 -24.60211426 2.08574707 -23.78540039 1.90454102 C-15.87533872 0.26921394 -8.05887743 -0.00587059 0 0 Z " fill="#FFFCFC" transform="translate(1928.1875,1639.5625)"/>
<path d="M0 0 C1.05247925 0.00181274 1.05247925 0.00181274 2.1262207 0.00366211 C21.08080284 0.09194313 37.1848422 2.63198358 53.625 12.375 C54.52863281 12.90480469 55.43226563 13.43460938 56.36328125 13.98046875 C61.43652652 17.16083932 65.66183224 20.89532917 69.625 25.375 C70.31916016 26.13876953 70.31916016 26.13876953 71.02734375 26.91796875 C74.8380372 31.60894397 76.22699668 36.91825036 77.828125 42.6796875 C78.36058885 45.26979294 78.36058885 45.26979294 79.625 46.375 C79.625 50.335 79.625 54.295 79.625 58.375 C61.805 58.375 43.985 58.375 25.625 58.375 C24.965 55.075 24.305 51.775 23.625 48.375 C18.88451855 43.3113039 13.61996753 40.27116131 6.65625 39.9765625 C4.81250043 39.96864941 2.96862132 39.97685831 1.125 40 C0.20074219 39.98839844 -0.72351563 39.97679687 -1.67578125 39.96484375 C-8.22733167 39.99296199 -12.40166508 41.18412164 -17.75 45.125 C-20.11528269 48.4000068 -19.99780726 50.43055401 -19.375 54.375 C-13.23164918 62.63012766 -3.30226485 64.32459925 6.1875 66.25 C8.60223053 66.76510747 11.0162849 67.28339383 13.4296875 67.8046875 C14.63592773 68.06475586 15.84216797 68.32482422 17.08496094 68.59277344 C56.34280741 77.26740379 56.34280741 77.26740379 68.625 88.375 C69.23472656 88.82230469 69.84445312 89.26960938 70.47265625 89.73046875 C78.30267904 95.59868363 82.96874874 104.85802057 84.625 114.375 C84.85665797 117.11449021 85.00611072 119.70343491 85 122.4375 C84.99867065 123.52961792 84.99867065 123.52961792 84.99731445 124.64379883 C84.64048557 141.37128485 77.20314758 156.8371541 65.19140625 168.42578125 C46.44705143 182.66236124 23.41223865 184.64784679 0.6875 184.6875 C-0.57843994 184.69289795 -1.84437988 184.6982959 -3.14868164 184.70385742 C-14.93096256 184.61572979 -26.76370075 183.64446184 -38.0625 180.125 C-39.12210938 179.8007605 -39.12210938 179.8007605 -40.203125 179.4699707 C-55.03752537 174.75008719 -66.54239187 167.10431595 -74.375 153.375 C-75.32336762 150.99984718 -75.88194837 148.89504164 -76.375 146.375 C-77.035 146.375 -77.695 146.375 -78.375 146.375 C-78.89016068 144.27449367 -79.38620483 142.16929772 -79.875 140.0625 C-80.29265625 138.30486328 -80.29265625 138.30486328 -80.71875 136.51171875 C-81.375 132.375 -81.375 132.375 -81.375 121.375 C-63.555 121.375 -45.735 121.375 -27.375 121.375 C-26.715 124.675 -26.055 127.975 -25.375 131.375 C-23.28921262 135.14287397 -21.95195182 136.99036546 -18.375 139.375 C-18.375 140.035 -18.375 140.695 -18.375 141.375 C-6.90249742 144.15020581 8.31586078 145.6553515 19.625 141.375 C22.8099383 139.27294072 24.21103196 137.92667611 25.19921875 134.22265625 C25.45955702 131.65768408 25.38013127 129.8426611 24.625 127.375 C19.72405357 121.7189659 10.51042935 120.25146866 3.625 118.375 C2.41070313 118.0346875 1.19640625 117.694375 -0.0546875 117.34375 C-6.02798473 115.70450835 -11.98939712 114.21889741 -18.0625 113 C-31.36547662 110.20335151 -44.88125256 106.85930066 -56.375 99.375 C-57.02339844 98.98828125 -57.67179688 98.6015625 -58.33984375 98.203125 C-63.53871161 94.88131009 -66.95777696 90.45015541 -70.375 85.375 C-71.1071875 84.33730469 -71.839375 83.29960938 -72.59375 82.23046875 C-79.82226845 71.10531478 -80.23975749 58.74144757 -77.92089844 45.85058594 C-77.44608419 43.67886544 -76.93115918 41.52714023 -76.375 39.375 C-76.04159875 38.04168365 -75.70824553 36.70835528 -75.375 35.375 C-74.715 35.375 -74.055 35.375 -73.375 35.375 C-73.2925 34.66085937 -73.21 33.94671875 -73.125 33.2109375 C-70.53159511 23.40462524 -60.00320793 15.78154691 -51.703125 10.7578125 C-43.61660257 6.36486383 -35.33304883 4.21249642 -26.375 2.375 C-25.58158203 2.19694824 -24.78816406 2.01889648 -23.97070312 1.83544922 C-15.99786135 0.17961961 -8.12156153 -0.02588011 0 0 Z " fill="#FFFCFC" transform="translate(979.375,1639.625)"/>
<path d="M0 0 C57.42 0 114.84 0 174 0 C174 15.18 174 30.36 174 46 C154.86 46 135.72 46 116 46 C116 89.56 116 133.12 116 178 C96.86 178 77.72 178 58 178 C58 134.44 58 90.88 58 46 C38.86 46 19.72 46 0 46 C0 30.82 0 15.64 0 0 Z " fill="#FFFBFB" transform="translate(2618,1643)"/>
<path d="M0 0 C57.42 0 114.84 0 174 0 C174 15.18 174 30.36 174 46 C154.86 46 135.72 46 116 46 C116 89.56 116 133.12 116 178 C97.19 178 78.38 178 59 178 C59 134.44 59 90.88 59 46 C39.53 46 20.06 46 0 46 C0 30.82 0 15.64 0 0 Z " fill="#FFFCFC" transform="translate(634,1643)"/>
<path d="M0 0 C57.09 0 114.18 0 173 0 C173 14.85 173 29.7 173 45 C153.86 45 134.72 45 115 45 C115 88.89 115 132.78 115 178 C96.19 178 77.38 178 58 178 C58 134.11 58 90.22 58 45 C38.86 45 19.72 45 0 45 C0 30.15 0 15.3 0 0 Z " fill="#FFFDFE" transform="translate(2029,1643)"/>
<path d="M0 0 C57.09 0 114.18 0 173 0 C173 14.85 173 29.7 173 45 C153.86 45 134.72 45 115 45 C115 88.89 115 132.78 115 178 C96.19 178 77.38 178 58 178 C58 134.11 58 90.22 58 45 C38.86 45 19.72 45 0 45 C0 30.15 0 15.3 0 0 Z " fill="#FFFEFE" transform="translate(1569,1643)"/>
<path d="M0 0 C18.48 0 36.96 0 56 0 C56 43.89 56 87.78 56 133 C86.03 133 116.06 133 147 133 C147 147.85 147 162.7 147 178 C98.49 178 49.98 178 0 178 C0 119.26 0 60.52 0 0 Z " fill="#FEFEFE" transform="translate(288,1643)"/>
<path d="M0 0 C35.7900641 0 35.7900641 0 45.5390625 9.2734375 C52.09502215 17.02138981 54.30344103 26.00059821 54.3359375 35.98046875 C54.3425943 36.71517899 54.3492511 37.44988922 54.35610962 38.2068634 C54.3661647 39.75222297 54.37092887 41.29762533 54.37060547 42.84301758 C54.3749578 45.16498371 54.4112925 47.48501207 54.44921875 49.80664062 C54.5582267 64.14333959 52.04768807 75.72237799 41.8125 86.25 C27.75022025 94.99986296 17.57310093 92 0 92 C0 61.64 0 31.28 0 0 Z " fill="#FF1426" transform="translate(3062,1686)"/>
<path d="M0 0 C13.53 0 27.06 0 41 0 C42.24267398 28.58150155 39.60118557 48.73366968 29 75 C23.06 75 17.12 75 11 75 C10.113125 72.545625 9.22625 70.09125 8.3125 67.5625 C8.04477783 66.82974854 7.77705566 66.09699707 7.5012207 65.34204102 C6.63210838 62.90616363 5.82020148 60.45279105 5 58 C4.35067505 56.20163696 4.35067505 56.20163696 3.68823242 54.36694336 C-0.34141492 42.62461848 -0.59507882 31.76443817 -0.3125 19.4375 C-0.209375 13.023125 -0.10625 6.60875 0 0 Z " fill="#FFFBFC" transform="translate(830,1643)"/>
<path d="M0 0 C5.71131497 -0.06905755 11.42116779 -0.12873506 17.13256836 -0.16479492 C19.07337364 -0.17983491 21.0141452 -0.20027214 22.95483398 -0.22631836 C25.75252632 -0.26291295 28.54976733 -0.27977448 31.34765625 -0.29296875 C32.2083522 -0.30845261 33.06904816 -0.32393646 33.95582581 -0.33988953 C39.98436236 -0.34155476 45.00340133 0.41996886 49.7421875 4.5 C53.59861769 9.60644549 54.64173067 13.64323388 54 20 C52.15080845 25.43879866 48.62413162 28.77361725 44 32 C41.26893489 32.91035504 39.70106761 33.12215713 36.89575195 33.11352539 C35.6648156 33.11341209 35.6648156 33.11341209 34.40901184 33.11329651 C33.0870002 33.10555458 33.0870002 33.10555458 31.73828125 33.09765625 C30.83248825 33.0962413 29.92669525 33.09482635 28.99345398 33.09336853 C26.09976909 33.08777001 23.20616151 33.07521781 20.3125 33.0625 C18.35091258 33.05748481 16.38932394 33.05292193 14.42773438 33.04882812 C9.61843582 33.03865187 4.80930447 33.01907613 0 33 C0 22.11 0 11.22 0 0 Z " fill="#FF182A" transform="translate(2486,1684)"/>
<path d="M0 0 C0.66 0 1.32 0 2 0 C2.48919922 1.77503906 2.48919922 1.77503906 2.98828125 3.5859375 C5.9963657 14.49231552 5.9963657 14.49231552 9.1953125 25.34375 C10.49462203 29.63273291 11.75050529 33.9345301 13.01245117 38.23461914 C14.14825445 42.10439895 15.28735615 45.97313999 16.43359375 49.83984375 C16.66449707 50.62029053 16.89540039 51.4007373 17.13330078 52.20483398 C17.57983514 53.71377342 18.02739644 55.22240941 18.47607422 56.73071289 C20 61.8876237 20 61.8876237 20 63 C7.46 63 -5.08 63 -18 63 C-17.36128795 58.52901565 -16.7865811 54.81966641 -15.546875 50.59375 C-15.11628784 49.11829712 -15.11628784 49.11829712 -14.67700195 47.61303711 C-14.21813599 46.07208374 -14.21813599 46.07208374 -13.75 44.5 C-13.43571045 43.43209229 -13.1214209 42.36418457 -12.79760742 41.26391602 C-10.72575158 34.27939051 -8.49102162 27.37582711 -6.12890625 20.484375 C-4.46847043 15.35943121 -3.12751027 10.16814478 -1.796875 4.94921875 C-1 2 -1 2 0 0 Z " fill="#FF182A" transform="translate(2308,1693)"/>
<path d="M0 0 C0.66 0 1.32 0 2 0 C2.33 1.65 2.66 3.3 3 5 C2.01 5.33 1.02 5.66 0 6 C-0.66 6.99 -1.32 7.98 -2 9 C-1.125 2.25 -1.125 2.25 0 0 Z " fill="#FF4F5D" transform="translate(2308,1693)"/>
</svg>
